<svg id="Logo" xmlns="http://www.w3.org/2000/svg" viewBox="0 0 806.09 685.48"><defs><style>.cls-1{fill:#fff;}</style></defs><path class="cls-1" d="M538.19,840.94a66.34,66.34,0,0,1-9-.62,48.92,48.92,0,0,1-27.68-13.89,282.93,282.93,0,0,1-5.65-32.62c-.32-2.8-.59-5.64-.82-8.45,0-.42,0-1.12,0-1.94.07-2.79.05-5-.68-5.88s-2-1.15-4.06-1.15a51.61,51.61,0,0,0-7.82.9c-1,.17-1.85.31-2.5.39-.64-.08-1.5-.22-2.49-.39a51.59,51.59,0,0,0-7.83-.9c-2.07,0-3.4.38-4.05,1.15s-.75,3.08-.69,5.88c0,.82,0,1.52,0,1.94-.23,2.81-.51,5.65-.82,8.45a280.82,280.82,0,0,1-5.66,32.62,48.85,48.85,0,0,1-27.68,13.89,66.08,66.08,0,0,1-8.94.62c-9.7,0-23.48-2.25-34-13-3-3-2.45-8.43-2-13.2.13-1.4.26-2.73.3-3.94.12-3.92.56-8.95,2.89-13.19s6.46-7,10.51-7h.1a8.69,8.69,0,0,1,6.3,3,6.73,6.73,0,0,1,1.78,5.24l-.09.73.71-.18,3.11-.81,3.15-.82.35-.09,0-.36a63.12,63.12,0,0,0-2.64-22.2c-.62-2.07-1.87-3.33-3.44-3.46a776.17,776.17,0,0,1-104-16.15l-.58-.13,0,.59c-.5,9.6-1.47,20.83-4.92,31.36-2.54,7.73-7.63,18.43-17.5,25.55a189.73,189.73,0,0,1-40.34-4.48,24.63,24.63,0,0,1-6-1.92,8.58,8.58,0,0,1-4.18-4.27c-3.24-8.21-3-17.35-2.69-26.19,0-1.13.07-2.26.09-3.38.05-1.8.2-3.81,1.46-5,1.57-1.47,3.8-2.16,7-2.16a46.88,46.88,0,0,1,6,.52l1.29.16a16.57,16.57,0,0,1,7.5,2.43A8.06,8.06,0,0,1,255.8,775v.45l.44,0,.45,0a6.19,6.19,0,0,0,5.2-3.45,14.41,14.41,0,0,0,1.11-6.2,152.36,152.36,0,0,0-.44-15.55l0-.42-.42,0A292.69,292.69,0,0,1,162,721.75c-1.2-2.9-2.33-5.87-3.43-8.74s-2.28-6-3.51-9l-.15-.36-.4.06a146.91,146.91,0,0,1-24.55,2,157.82,157.82,0,0,1-47.06-7.26c-9.94-22.87-5.94-51.37,10-71a47.43,47.43,0,0,1,8.18-.7,56.81,56.81,0,0,1,14.55,2A136.74,136.74,0,0,0,110.34,652c-.42,2.78-.6,5.91,1.29,8a9,9,0,0,0,4.93,2.36,49.62,49.62,0,0,0,10.67,1.17c1.48,0,3-.07,4.46-.21l.46,0v-.47c0-1.13-2.55-113.41,31.57-138.72,6.31-4.68,14.54-5.36,21.77-5.63L224.24,517l.13-.29a19.12,19.12,0,0,0,1.38-10.46l-.05-.33-.31-.09c-5.28-1.49-10.61-3.16-15.77-4.77s-10.51-3.28-15.8-4.78c-9.17-2.6-19.57-5.55-26.94-12.62-1-6.79-.16-14.49,2.5-23.54,1.12-3.83,2.48-7.66,3.79-11.37s2.66-7.52,3.79-11.35a111.86,111.86,0,0,0,.76-60.46l-.06-.22-.22-.1a39.57,39.57,0,0,0-10-3.24l-.14,0-.13.06a7.34,7.34,0,0,0-4.23,5.94l0,.32.27.17a38.76,38.76,0,0,0,8.07,3.56,38.55,38.55,0,0,1-14.83,24.45,59.52,59.52,0,0,1-32.59-12.59,69,69,0,0,1,2.56-42.34,36,36,0,0,1,5.39-9.86,18.88,18.88,0,0,1,8.92-6.41c8.46-2.65,18.1-3.94,29.46-3.94,9.59,0,19.39.89,28.87,1.75l6.94.62c4,.34,7.82.84,10.69,3.14l.58.47.21-.72a217.13,217.13,0,0,1,10.24-28.21c3-6.78,6.67-13.65,12.56-18,2.55-.37,43.22-6.21,71.81-6.21a113.18,113.18,0,0,1,17.8,1.13v.07l.24,0,.59,3.31.34-3.7a84.91,84.91,0,0,0-.28-18c-.31-2.54-.79-5.44-2.58-7.67l-.51-.64-.34.74a10.23,10.23,0,0,1-7.19,5.38,14,14,0,0,1-2.94.3,20.68,20.68,0,0,1-6.37-1.12,17.21,17.21,0,0,1-5.79-3,9.6,9.6,0,0,1-3.38-5.32c-1.35-6.61,0-14.29,4-22.83a20.53,20.53,0,0,1,2.7-4.47,10.12,10.12,0,0,1,4-3,72.35,72.35,0,0,1,25.33-4.83,55.89,55.89,0,0,1,17.43,2.68,29.89,29.89,0,0,1,13.67,9,44.91,44.91,0,0,1,4.86,7.69c.36.67.72,1.34,1.09,2,1.77,3.16,4,6.71,7.29,9.05a12.88,12.88,0,0,0,7.25,2.42,9.22,9.22,0,0,0,4.11-.92A36.92,36.92,0,0,1,410,250.17,61.94,61.94,0,0,1,427.83,253a32.24,32.24,0,0,0,1.66,9l.16.53.51-.22A17,17,0,0,1,437,261a24.24,24.24,0,0,1,4.12.36l.6.11,0-.62A140.44,140.44,0,0,1,443,240.94c.3-2.58.61-5.25.85-7.84.78-8.41,1.19-18.27-1.73-27.56a14.47,14.47,0,0,0-3.27-6.06l-.43-.42-1.06,1.53v.13a14.55,14.55,0,0,1-3.57,8.36,13.35,13.35,0,0,1-10.37,4.63A13.91,13.91,0,0,1,419,213,18.11,18.11,0,0,1,408,201.65c-1.39-3.91-1.1-8-.81-12.26.05-.67.1-1.35.14-2a31.48,31.48,0,0,1,3.77-13.91,27.08,27.08,0,0,1,12.26-10.88,65.47,65.47,0,0,1,26.88-6.12,54,54,0,0,1,5.44.28,35.67,35.67,0,0,1,24,12.86l.39.48.39-.48a35.71,35.71,0,0,1,24-12.86,54,54,0,0,1,5.44-.28,65.39,65.39,0,0,1,26.87,6.12A27.11,27.11,0,0,1,549,173.46a31.48,31.48,0,0,1,3.77,13.91c0,.67.09,1.35.13,2,.3,4.29.58,8.35-.8,12.26A18.11,18.11,0,0,1,541,213a13.91,13.91,0,0,1-4.42.7,13.35,13.35,0,0,1-10.37-4.63,14.57,14.57,0,0,1-3.58-8.36v-.13l-1-1.53-.43.42a14.49,14.49,0,0,0-3.28,6.06c-2.91,9.3-2.5,19.15-1.72,27.56.24,2.59.55,5.26.85,7.84a139,139,0,0,1,1.35,19.91v.62l.6-.11a24.21,24.21,0,0,1,4.11-.36,17.06,17.06,0,0,1,6.81,1.28l.51.22.16-.53a32.24,32.24,0,0,0,1.66-9,61.94,61.94,0,0,1,17.84-2.83,36.85,36.85,0,0,1,16.53,3.55,9.29,9.29,0,0,0,4.12.92,12.88,12.88,0,0,0,7.25-2.42c3.28-2.34,5.52-5.89,7.28-9.05.37-.67.73-1.34,1.1-2a44.6,44.6,0,0,1,4.86-7.7,29.89,29.89,0,0,1,13.67-9,55.88,55.88,0,0,1,17.42-2.68,72.26,72.26,0,0,1,25.33,4.83,10,10,0,0,1,4,3,20.52,20.52,0,0,1,2.71,4.47c4,8.54,5.36,16.22,4,22.83a9.6,9.6,0,0,1-3.38,5.32,17.26,17.26,0,0,1-5.8,3,20.57,20.57,0,0,1-6.36,1.12,14,14,0,0,1-2.94-.3,10.25,10.25,0,0,1-7.2-5.38l-.33-.74-.51.64c-1.79,2.23-2.27,5.13-2.58,7.67a84.25,84.25,0,0,0-.28,18l.34,3.7.6-3.36a111.3,111.3,0,0,1,18-1.17c28.59,0,69.26,5.84,71.81,6.21,5.89,4.39,9.52,11.26,12.56,18A217.13,217.13,0,0,1,742.59,338l.2.72.59-.47c2.87-2.3,6.7-2.8,10.69-3.14l6.94-.62c9.48-.86,19.28-1.75,28.87-1.75,11.36,0,21,1.29,29.46,3.94a18.93,18.93,0,0,1,8.92,6.41,36,36,0,0,1,5.39,9.86,69,69,0,0,1,2.56,42.34,59.52,59.52,0,0,1-32.6,12.59,38.58,38.58,0,0,1-14.82-24.45,38.76,38.76,0,0,0,8.07-3.56l.27-.17,0-.32a7.34,7.34,0,0,0-4.23-5.94l-.13-.06-.14,0a39.44,39.44,0,0,0-10,3.24l-.22.1-.06.22a111.86,111.86,0,0,0,.76,60.46c1.13,3.83,2.48,7.65,3.79,11.35s2.67,7.54,3.79,11.37c2.65,9.05,3.47,16.75,2.5,23.54-7.37,7.07-17.77,10-26.94,12.62-5.29,1.5-10.63,3.17-15.8,4.78s-10.49,3.28-15.77,4.77l-.32.09,0,.33a19.12,19.12,0,0,0,1.38,10.46l.13.29,38.76,1.43c7.22.27,15.46.95,21.77,5.63,17.79,13.2,25.43,50.18,28.7,78.87a487.64,487.64,0,0,1,2.87,59.85v.47l.46,0c1.48.14,3,.21,4.46.21a50.26,50.26,0,0,0,10.67-1.17,9,9,0,0,0,4.93-2.36c1.89-2.09,1.71-5.22,1.28-8a135.72,135.72,0,0,0-5.22-23.23,56.81,56.81,0,0,1,14.55-2,47.43,47.43,0,0,1,8.18.7c15.92,19.68,19.92,48.18,10,71a157.87,157.87,0,0,1-47.06,7.26,146.73,146.73,0,0,1-24.55-2l-.4-.06-.15.36c-1.23,3-2.39,6-3.51,9s-2.23,5.84-3.43,8.73a292.75,292.75,0,0,1-100.15,28.12l-.42,0,0,.42a152.2,152.2,0,0,0-.44,15.55,14.41,14.41,0,0,0,1.11,6.2,6.19,6.19,0,0,0,5.2,3.45l.44,0,.45,0V775a8,8,0,0,1,3.78-6.37,16.57,16.57,0,0,1,7.5-2.43l1.29-.16a46.88,46.88,0,0,1,6-.52c3.22,0,5.45.69,7,2.16,1.26,1.18,1.41,3.19,1.45,5,0,1.12.07,2.25.1,3.38.27,8.84.55,18-2.69,26.19a8.58,8.58,0,0,1-4.18,4.27,24.29,24.29,0,0,1-6,1.92,190,190,0,0,1-40.33,4.48c-9.87-7.12-15-17.82-17.5-25.55-3.45-10.53-4.42-21.76-4.92-31.36l0-.6-.59.14a585.32,585.32,0,0,1-104,16.15c-1.56.11-2.82,1.37-3.44,3.46a62.89,62.89,0,0,0-2.64,22.2l0,.36.35.09,3.15.82,3.11.81.71.18-.09-.73a6.73,6.73,0,0,1,1.78-5.24,8.67,8.67,0,0,1,6.3-3h.1c4,0,8.17,2.74,10.51,7s2.77,9.27,2.89,13.19c0,1.21.16,2.54.3,3.94.47,4.77,1,10.17-2,13.2C561.66,838.69,547.89,840.94,538.19,840.94Z" transform="translate(-76.98 -155.96)"/><path d="M509.85,156v1A64.79,64.79,0,0,1,536.52,163a26.59,26.59,0,0,1,12,10.67,31.06,31.06,0,0,1,3.7,13.69c0,.68.09,1.35.13,2,.3,4.24.58,8.25-.77,12.06a17.89,17.89,0,0,1-10.74,11.06,13.76,13.76,0,0,1-4.26.67,12.84,12.84,0,0,1-10-4.45,14.08,14.08,0,0,1-3.47-8.08l0-.26-.15-.23-.32-.46-.32-.47-.68-1-.85.84a14.89,14.89,0,0,0-3.4,6.27c-2.94,9.38-2.53,19.29-1.75,27.75.25,2.6.56,5.28.85,7.86a138.1,138.1,0,0,1,1.35,19.84l0,1.22,1.2-.21a24.3,24.3,0,0,1,4-.35,16.62,16.62,0,0,1,6.61,1.24l1,.44.33-1.07a33.43,33.43,0,0,0,1.67-8.73,61.2,61.2,0,0,1,17.35-2.71,36.44,36.44,0,0,1,16.31,3.49,9.7,9.7,0,0,0,4.34,1,13.2,13.2,0,0,0,7.54-2.51c3.36-2.4,5.64-6,7.43-9.22.37-.66.73-1.34,1.1-2a45,45,0,0,1,4.8-7.61A29.36,29.36,0,0,1,605,225a55.26,55.26,0,0,1,17.27-2.66,71.8,71.8,0,0,1,25.16,4.8,9.52,9.52,0,0,1,3.83,2.88,19.91,19.91,0,0,1,2.63,4.36c4,8.44,5.31,16,4,22.52a9,9,0,0,1-3.21,5,17,17,0,0,1-5.63,2.92,20.23,20.23,0,0,1-6.21,1.09,13.74,13.74,0,0,1-2.84-.29,9.72,9.72,0,0,1-6.84-5.1l-.68-1.47-1,1.26c-1.78,2.22-2.34,5.12-2.69,7.93a85.28,85.28,0,0,0-.28,18.14l.68,7.38,1.19-6.65A112.53,112.53,0,0,1,648,286c28.17,0,68.09,5.68,71.61,6.19,5.74,4.32,9.31,11.09,12.31,17.77a219,219,0,0,1,10.21,28.14l.41,1.44,1.17-.94c2.76-2.21,6.51-2.7,10.43-3l6.94-.62c9.46-.86,19.25-1.75,28.82-1.75,11.31,0,20.9,1.28,29.31,3.92a18.42,18.42,0,0,1,8.68,6.24,35.75,35.75,0,0,1,5.31,9.73A68.47,68.47,0,0,1,835.76,395a59.05,59.05,0,0,1-32,12.36,38.07,38.07,0,0,1-14.42-23.61,37.38,37.38,0,0,0,7.77-3.47l.54-.34-.07-.63a7.88,7.88,0,0,0-4.54-6.34l-.26-.12-.29,0a40.25,40.25,0,0,0-10.1,3.28l-.43.2-.12.46a112.22,112.22,0,0,0,.76,60.72c1.13,3.84,2.49,7.67,3.8,11.37s2.66,7.54,3.78,11.36c2.61,8.89,3.43,16.47,2.51,23.15-7.28,6.9-17.54,9.81-26.61,12.38-5.3,1.5-10.64,3.17-15.81,4.78s-10.49,3.28-15.76,4.77l-.63.18-.09.65a19.77,19.77,0,0,0,1.42,10.74l.26.57.62,0,18.86.7,19.59.72c7.15.27,15.29.93,21.49,5.53,17.65,13.09,25.24,49.93,28.51,78.52a487.73,487.73,0,0,1,2.86,59.79l0,.94.94.08c1.48.14,3,.2,4.5.2a50.06,50.06,0,0,0,10.78-1.17,9.44,9.44,0,0,0,5.19-2.51c2-2.25,1.85-5.51,1.41-8.41a138.68,138.68,0,0,0-5.07-22.81A56,56,0,0,1,859,627.3a46.48,46.48,0,0,1,7.91.66c15.66,19.47,19.61,47.57,9.88,70.18a157,157,0,0,1-46.69,7.17,146.93,146.93,0,0,1-24.47-2l-.79-.13-.3.73c-1.23,3-2.4,6-3.52,9s-2.18,5.72-3.35,8.55a292.2,292.2,0,0,1-99.81,28l-.84.09-.06.83a153.26,153.26,0,0,0-.44,15.6,14.89,14.89,0,0,0,1.16,6.41,6.72,6.72,0,0,0,5.65,3.73l.5,0,.89-.1V775a7.54,7.54,0,0,1,3.56-6,16.14,16.14,0,0,1,7.28-2.35l1.29-.16a48.09,48.09,0,0,1,6-.51c3.08,0,5.2.64,6.67,2,1.13,1.05,1.26,3,1.31,4.64,0,1.13.06,2.26.09,3.39.27,8.79.55,17.87-2.66,26a8.08,8.08,0,0,1-3.94,4,24.22,24.22,0,0,1-5.9,1.87,189.61,189.61,0,0,1-40.07,4.47c-9.68-7-14.68-17.58-17.18-25.21-3.44-10.47-4.41-21.66-4.9-31.22l-.06-1.21-1.17.29A585.46,585.46,0,0,1,551.11,771.2c-1.76.12-3.21,1.55-3.89,3.82a63.38,63.38,0,0,0-2.66,22.37l.05.73.71.18,3.12.81,3.14.81,1.41.36-.17-1.45a6.18,6.18,0,0,1,1.66-4.85,8.29,8.29,0,0,1,5.93-2.83h.09c3.87,0,7.82,2.63,10.07,6.71s2.71,9.1,2.83,13c0,1.24.17,2.57.3,4,.46,4.66,1,9.94-1.84,12.8-10.43,10.61-24.07,12.84-33.67,12.84a65.32,65.32,0,0,1-8.88-.62A48.37,48.37,0,0,1,502,826.18a277.52,277.52,0,0,1-5.61-32.43c-.32-2.79-.6-5.63-.83-8.44,0-.38,0-1.11,0-1.88.07-3,.05-5.2-.8-6.21s-2.17-1.33-4.44-1.33a51.11,51.11,0,0,0-7.9.91c-1,.16-1.8.3-2.42.37s-1.45-.21-2.41-.37a51.1,51.1,0,0,0-7.91-.91c-2.26,0-3.67.42-4.43,1.33s-.87,3.21-.81,6.21c0,.77,0,1.5,0,1.88-.24,2.81-.51,5.65-.83,8.44A279.63,279.63,0,0,1,458,826.18a48.43,48.43,0,0,1-27.29,13.64,65.32,65.32,0,0,1-8.88.62c-9.6,0-23.24-2.23-33.67-12.84-2.81-2.86-2.3-8.14-1.85-12.8.14-1.41.27-2.74.31-4,.12-3.86.54-8.82,2.83-13s6.2-6.71,10.07-6.71h.09a8.29,8.29,0,0,1,5.93,2.83,6.18,6.18,0,0,1,1.66,4.85l-.18,1.45,1.42-.36,3.14-.81,3.12-.81.71-.18.05-.73A63.16,63.16,0,0,0,412.82,775c-.66-2.25-2.11-3.67-3.87-3.82a776.88,776.88,0,0,1-104-16.14l-1.15-.26-.06,1.19c-.5,9.56-1.46,20.75-4.9,31.22-2.5,7.63-7.51,18.17-17.18,25.21A189.61,189.61,0,0,1,241.63,808a24.22,24.22,0,0,1-5.9-1.87,8.14,8.14,0,0,1-3.95-4c-3.2-8.12-2.92-17.2-2.65-26,0-1.13.07-2.26.09-3.39,0-1.69.18-3.59,1.3-4.64,1.48-1.38,3.6-2,6.68-2a48.09,48.09,0,0,1,6,.51l1.29.16a16.18,16.18,0,0,1,7.28,2.35,7.57,7.57,0,0,1,3.56,6v.9l.89.1.5,0a6.72,6.72,0,0,0,5.65-3.73,14.89,14.89,0,0,0,1.16-6.41,153.26,153.26,0,0,0-.44-15.6l-.07-.83-.83-.09a292.2,292.2,0,0,1-99.81-28c-1.17-2.83-2.28-5.74-3.35-8.55s-2.29-6-3.52-9l-.3-.73-.79.13a146.93,146.93,0,0,1-24.47,2,157,157,0,0,1-46.69-7.17c-9.73-22.61-5.78-50.71,9.88-70.18a46.39,46.39,0,0,1,7.91-.66,56.1,56.1,0,0,1,13.9,1.81,138.68,138.68,0,0,0-5.07,22.81c-.44,2.9-.62,6.16,1.41,8.41a9.44,9.44,0,0,0,5.19,2.51A50.06,50.06,0,0,0,127.23,664c1.5,0,3-.06,4.5-.2l.93-.08,0-.94A487.73,487.73,0,0,1,135.5,603c3.27-28.59,10.86-65.43,28.51-78.52,6.19-4.6,14.34-5.26,21.48-5.53l18.87-.7,19.59-.72.62,0,.26-.57a19.67,19.67,0,0,0,1.41-10.74l-.09-.65-.62-.18c-5.28-1.49-10.61-3.16-15.76-4.76s-10.51-3.29-15.81-4.79c-9.07-2.57-19.34-5.48-26.61-12.38-.92-6.68-.1-14.26,2.51-23.15,1.12-3.82,2.47-7.65,3.78-11.36s2.67-7.53,3.8-11.37a112.32,112.32,0,0,0,.76-60.72l-.12-.46-.43-.2a40.18,40.18,0,0,0-10.11-3.28l-.28,0L167,373a7.88,7.88,0,0,0-4.54,6.34l-.07.63.54.34a37.38,37.38,0,0,0,7.77,3.47,38.07,38.07,0,0,1-14.42,23.61,59.11,59.11,0,0,1-32-12.36,68.62,68.62,0,0,1,2.58-41.88,36.18,36.18,0,0,1,5.32-9.73,18.42,18.42,0,0,1,8.68-6.24c8.41-2.64,18-3.92,29.31-3.92,9.57,0,19.36.89,28.83,1.75l6.93.62c3.92.33,7.66.82,10.43,3l1.17.94.41-1.44A216.05,216.05,0,0,1,228.15,310c3-6.68,6.57-13.45,12.3-17.77,3.53-.51,43.45-6.19,71.62-6.19a112.53,112.53,0,0,1,17.61,1.11l1.19,6.65.68-7.38a85.28,85.28,0,0,0-.28-18.14c-.35-2.81-.91-5.71-2.69-7.93l-1-1.26-.68,1.47a9.74,9.74,0,0,1-6.84,5.1,13.74,13.74,0,0,1-2.84.29,20.23,20.23,0,0,1-6.21-1.09,16.89,16.89,0,0,1-5.63-2.92,9,9,0,0,1-3.21-5c-1.33-6.5,0-14.08,4-22.52a19.9,19.9,0,0,1,2.64-4.36,9.52,9.52,0,0,1,3.83-2.88,71.79,71.79,0,0,1,25.15-4.8A55.57,55.57,0,0,1,355,225a29.36,29.36,0,0,1,13.44,8.8,45,45,0,0,1,4.8,7.61c.36.67.73,1.35,1.1,2,1.79,3.21,4.07,6.82,7.43,9.22a13.2,13.2,0,0,0,7.54,2.51,9.73,9.73,0,0,0,4.34-1A36.44,36.44,0,0,1,410,250.67a61.09,61.09,0,0,1,17.34,2.71,33.41,33.41,0,0,0,1.68,8.73l.32,1.07,1-.44a16.6,16.6,0,0,1,6.6-1.24,24.42,24.42,0,0,1,4,.35l1.2.21,0-1.22A141,141,0,0,1,443.51,241c.3-2.59.61-5.26.85-7.86.79-8.46,1.2-18.37-1.74-27.75a15,15,0,0,0-3.4-6.27l-.85-.84-.68,1-.64.93-.15.23,0,.26a14.08,14.08,0,0,1-3.47,8.08,12.84,12.84,0,0,1-10,4.45,13.76,13.76,0,0,1-4.26-.67,17.87,17.87,0,0,1-10.74-11.06c-1.35-3.81-1.07-7.82-.78-12.06.05-.67.1-1.34.14-2a31.06,31.06,0,0,1,3.7-13.69,26.59,26.59,0,0,1,12-10.67A64.79,64.79,0,0,1,450.2,157a53.13,53.13,0,0,1,5.39.28,35.24,35.24,0,0,1,23.66,12.67l.77,1,.78-1a35.24,35.24,0,0,1,23.66-12.67,53.13,53.13,0,0,1,5.39-.28v-1m0,0a50.08,50.08,0,0,0-5.49.29,36.32,36.32,0,0,0-24.34,13h0a36.28,36.28,0,0,0-24.33-13,50.22,50.22,0,0,0-5.49-.29,66.22,66.22,0,0,0-27.08,6.17,27.5,27.5,0,0,0-12.49,11.08,32.19,32.19,0,0,0-3.84,14.13c-.29,4.92-1,9.83.7,14.47a18.76,18.76,0,0,0,11.36,11.68,14.82,14.82,0,0,0,4.58.72,13.79,13.79,0,0,0,10.75-4.82,15,15,0,0,0,3.69-8.63l.65-.93a13.92,13.92,0,0,1,3.15,5.86c2.75,8.78,2.55,18.2,1.7,27.36s-2.48,18.62-2.21,27.82a25.23,25.23,0,0,0-4.2-.37,17.76,17.76,0,0,0-7,1.32,30.43,30.43,0,0,1-1.63-9.19,63.34,63.34,0,0,0-18.34-3,37.49,37.49,0,0,0-16.76,3.6,8.74,8.74,0,0,1-3.89.87,12.34,12.34,0,0,1-7-2.33c-3.12-2.22-5.27-5.54-7.14-8.89s-3.54-6.84-6-9.77A30.19,30.19,0,0,0,355.34,224a56.44,56.44,0,0,0-17.59-2.71,72.35,72.35,0,0,0-25.5,4.87,10.47,10.47,0,0,0-4.25,3.17,21.34,21.34,0,0,0-2.77,4.58c-3.38,7.2-5.64,15.34-4.05,23.14a10.06,10.06,0,0,0,3.55,5.61,18,18,0,0,0,6,3.1,21.08,21.08,0,0,0,6.52,1.14,15,15,0,0,0,3.05-.31A10.78,10.78,0,0,0,327.8,261c1.65,2.06,2.15,4.8,2.47,7.42a84,84,0,0,1,.28,17.93s0-.05-.09-.05h-.07c-.05,0-.08,0-.09,0a111.1,111.1,0,0,0-18.23-1.2c-29.76,0-72,6.23-72,6.23-6.07,4.48-9.73,11.44-12.82,18.32A217.82,217.82,0,0,0,217,337.85c-3-2.42-7.11-2.92-11-3.25-11.79-1-23.91-2.37-35.85-2.37-10.1,0-20.07,1-29.61,4a19.53,19.53,0,0,0-9.16,6.57,37.41,37.41,0,0,0-5.47,10,69.41,69.41,0,0,0-2.53,42.81,60.14,60.14,0,0,0,33.19,12.81,39.12,39.12,0,0,0,15.23-25.3,38.67,38.67,0,0,1-8.36-3.65,6.87,6.87,0,0,1,3.92-5.54,39,39,0,0,1,9.85,3.2,112,112,0,0,1-.75,60.19c-2.26,7.66-5.33,15.06-7.58,22.72s-3.66,16-2.49,23.92c7.29,7.08,17.5,10.09,27.28,12.86,10.57,3,21,6.56,31.56,9.56a18.62,18.62,0,0,1-1.34,10.19L185.46,518c-7.79.29-15.79,1.08-22.05,5.73-34.72,25.76-31.77,139.14-31.77,139.14-1.46.13-2.94.19-4.41.19a48.66,48.66,0,0,1-10.56-1.15,8.56,8.56,0,0,1-4.67-2.2c-1.78-2-1.56-5-1.16-7.59a133.26,133.26,0,0,1,5.37-23.65A57.6,57.6,0,0,0,101,626.3a47.66,47.66,0,0,0-8.45.74c-16,19.67-20.27,48.7-10.08,71.92a158.75,158.75,0,0,0,47.43,7.35,146.42,146.42,0,0,0,24.64-2.06c2.45,5.92,4.55,12,7,17.87a293.71,293.71,0,0,0,100.49,28.25,151.22,151.22,0,0,1,.44,15.5,14.13,14.13,0,0,1-1.06,6,5.73,5.73,0,0,1-4.75,3.17,2.55,2.55,0,0,1-.39,0,8.58,8.58,0,0,0-4-6.79,17.56,17.56,0,0,0-7.72-2.51,61.84,61.84,0,0,0-7.38-.68c-2.8,0-5.46.51-7.36,2.29-1.4,1.31-1.57,3.43-1.62,5.34-.24,10.06-1.06,20.42,2.63,29.77a9.16,9.16,0,0,0,4.42,4.54,24.77,24.77,0,0,0,6.15,1.95,189.44,189.44,0,0,0,40.55,4.5h0c8.67-6.2,14.49-15.77,17.81-25.9s4.4-20.84,4.95-31.48A779.85,779.85,0,0,0,408.87,772.2c1.57.13,2.55,1.59,3,3.1a62.48,62.48,0,0,1,2.62,22c-1.85.46-4.42,1.16-6.27,1.62.57-4.58-4-8.75-8.57-8.8h-.1c-4.58,0-8.73,3.21-10.95,7.23s-2.81,8.79-3,13.41c-.16,5.4-2.21,13.4,1.82,17.51,9.13,9.29,21.71,13.14,34.39,13.14a64.66,64.66,0,0,0,9-.63,49.52,49.52,0,0,0,28.07-14.13,280.26,280.26,0,0,0,5.7-32.81c.31-2.82.59-5.65.82-8.47.13-1.53-.37-6.41.57-7.54.61-.72,2-1,3.67-1,3.44,0,8.18,1,10.32,1.29,2.15-.25,6.89-1.29,10.32-1.29,1.69,0,3.07.25,3.68,1,.94,1.13.44,6,.57,7.54.23,2.82.5,5.65.82,8.47a280.26,280.26,0,0,0,5.7,32.81,49.52,49.52,0,0,0,28.07,14.13,64.66,64.66,0,0,0,9,.63c12.68,0,25.26-3.85,34.39-13.14,4-4.11,2-12.11,1.82-17.51-.14-4.62-.72-9.36-2.95-13.41s-6.37-7.23-11-7.23h-.1c-4.63.05-9.14,4.22-8.58,8.8-1.84-.46-4.41-1.16-6.26-1.62a62.48,62.48,0,0,1,2.62-22c.45-1.51,1.43-3,3-3.1A586,586,0,0,0,655.27,756c.55,10.64,1.63,21.36,4.94,31.48s9.15,19.7,17.82,25.9h.05a189.44,189.44,0,0,0,40.55-4.5,24.77,24.77,0,0,0,6.15-1.95,9.1,9.1,0,0,0,4.41-4.54c3.7-9.35,2.88-19.71,2.63-29.77,0-1.91-.22-4-1.61-5.34-1.9-1.78-4.56-2.29-7.36-2.29a61.65,61.65,0,0,0-7.38.68,17.52,17.52,0,0,0-7.72,2.51,8.58,8.58,0,0,0-4,6.79,2.55,2.55,0,0,1-.39,0,5.76,5.76,0,0,1-4.76-3.17,14.28,14.28,0,0,1-1.05-6,154.12,154.12,0,0,1,.43-15.5,293.7,293.7,0,0,0,100.5-28.25c2.46-5.92,4.56-12,7-17.87a146.42,146.42,0,0,0,24.64,2.06A158.63,158.63,0,0,0,877.55,699c10.2-23.22,5.93-52.25-10.07-71.92a47.66,47.66,0,0,0-8.45-.74,57.6,57.6,0,0,0-15.19,2.12,133.26,133.26,0,0,1,5.37,23.65c.4,2.62.61,5.62-1.16,7.59a8.56,8.56,0,0,1-4.67,2.2A48.66,48.66,0,0,1,832.82,663c-1.48,0-3-.06-4.41-.19,0,0,3-113.38-31.77-139.14-6.26-4.65-14.26-5.44-22-5.73l-38.45-1.42a18.62,18.62,0,0,1-1.35-10.19c10.58-3,21-6.56,31.57-9.56,9.78-2.77,20-5.78,27.28-12.86,1.17-7.9-.24-16.25-2.49-23.92s-5.32-15.06-7.58-22.72a112,112,0,0,1-.75-60.19,39,39,0,0,1,9.85-3.2,6.87,6.87,0,0,1,3.92,5.54,38.67,38.67,0,0,1-8.36,3.65,39.12,39.12,0,0,0,15.23,25.3,60.14,60.14,0,0,0,33.19-12.81,69.49,69.49,0,0,0-2.53-42.81,37.41,37.41,0,0,0-5.47-10,19.53,19.53,0,0,0-9.16-6.57c-9.54-3-19.52-4-29.61-4-12,0-24.06,1.37-35.85,2.37-3.86.33-7.94.83-11,3.25a217.82,217.82,0,0,0-10.26-28.27c-3.09-6.88-6.76-13.84-12.82-18.32,0,0-42.25-6.23-72-6.23a111.1,111.1,0,0,0-18.23,1.2s0,0-.09,0h-.08s-.07,0-.08.05a84,84,0,0,1,.27-17.93c.33-2.62.83-5.36,2.48-7.42a10.76,10.76,0,0,0,7.54,5.66,14.82,14.82,0,0,0,3.05.31,21.08,21.08,0,0,0,6.52-1.14,18,18,0,0,0,6-3.1,10.06,10.06,0,0,0,3.55-5.61c1.59-7.8-.67-15.94-4-23.14a21.34,21.34,0,0,0-2.77-4.58,10.47,10.47,0,0,0-4.25-3.17,72.41,72.41,0,0,0-25.51-4.87A56.38,56.38,0,0,0,604.71,224a30.19,30.19,0,0,0-13.89,9.11c-2.47,2.93-4.15,6.43-6,9.77s-4,6.67-7.14,8.89a12.34,12.34,0,0,1-7,2.33,8.74,8.74,0,0,1-3.89-.87,37.49,37.49,0,0,0-16.76-3.6,63.34,63.34,0,0,0-18.34,3,30.74,30.74,0,0,1-1.63,9.19,17.81,17.81,0,0,0-7-1.32,25.33,25.33,0,0,0-4.2.37c.28-9.2-1.35-18.66-2.2-27.82s-1-18.58,1.7-27.36a13.92,13.92,0,0,1,3.15-5.86l.65.93a15,15,0,0,0,3.68,8.63,13.83,13.83,0,0,0,10.76,4.82,14.86,14.86,0,0,0,4.58-.72,18.76,18.76,0,0,0,11.36-11.68c1.64-4.64,1-9.55.7-14.47a32.19,32.19,0,0,0-3.84-14.13,27.5,27.5,0,0,0-12.49-11.08A66.22,66.22,0,0,0,509.85,156Z" transform="translate(-76.98 -155.96)"/></svg>