<svg id="Layer_1" data-name="Layer 1" xmlns="http://www.w3.org/2000/svg" viewBox="0 0 806.09 685.48">
  <defs>
    <style>
      .cls-1, .cls-3 {
        fill: #fff;
      }

      .cls-2 {
        fill: #010101;
      }

      .cls-3 {
        stroke: #010101;
        stroke-miterlimit: 10;
      }
    </style>
  </defs>
  <g id="contorno">
    <path class="cls-1" d="M356.08,763.13a64.55,64.55,0,0,1-8.95-.63,49,49,0,0,1-27.68-13.88A281.36,281.36,0,0,1,313.79,716c-.31-2.79-.59-5.64-.82-8.45,0-.42,0-1.12,0-1.94.06-2.79,0-5-.69-5.87s-2-1.15-4-1.15a51.74,51.74,0,0,0-7.83.9c-1,.16-1.85.31-2.49.38s-1.51-.22-2.49-.38a51.88,51.88,0,0,0-7.83-.9c-2.08,0-3.41.37-4.06,1.15s-.74,3.08-.68,5.88c0,.81,0,1.52,0,1.93-.23,2.8-.51,5.64-.83,8.45a278.86,278.86,0,0,1-5.65,32.63,49,49,0,0,1-27.68,13.88,64.77,64.77,0,0,1-8.95.63c-9.69,0-23.47-2.26-34-13-3-3-2.44-8.43-2-13.19.14-1.41.27-2.73.31-4,.11-3.91.55-9,2.89-13.19s6.45-7,10.5-7h.1a8.71,8.71,0,0,1,6.3,3,6.75,6.75,0,0,1,1.78,5.25l-.09.72.71-.18,3.13-.81,3.13-.81.36-.09,0-.37a62.71,62.71,0,0,0-2.64-22.2c-.61-2.07-1.86-3.33-3.43-3.45a777.75,777.75,0,0,1-104-16.16l-.58-.12,0,.59c-.49,9.59-1.47,20.82-4.92,31.35-2.53,7.74-7.62,18.43-17.49,25.55a189.59,189.59,0,0,1-40.34-4.48,24.2,24.2,0,0,1-6-1.91,8.65,8.65,0,0,1-4.19-4.27c-3.24-8.21-3-17.35-2.69-26.19,0-1.13.07-2.26.1-3.39,0-1.79.19-3.8,1.46-5,1.57-1.47,3.8-2.15,7-2.15a49,49,0,0,1,6,.51l1.28.16a16.62,16.62,0,0,1,7.51,2.43,8,8,0,0,1,3.77,6.38v.45l.45,0a3.25,3.25,0,0,0,.44,0,6.2,6.2,0,0,0,5.21-3.45,14.61,14.61,0,0,0,1.1-6.2,152.47,152.47,0,0,0-.43-15.56l0-.41-.41,0A292.75,292.75,0,0,1-20.16,643.93c-1.2-2.89-2.33-5.86-3.43-8.74s-2.28-6-3.51-8.94l-.15-.37-.39.07a148,148,0,0,1-24.55,2,157.5,157.5,0,0,1-47.06-7.26c-10-22.87-5.94-51.36,10-71.05a47.51,47.51,0,0,1,8.18-.7,56.81,56.81,0,0,1,14.55,2,137,137,0,0,0-5.22,23.24c-.43,2.78-.61,5.9,1.28,8a9,9,0,0,0,4.93,2.35,49.15,49.15,0,0,0,10.68,1.17c1.48,0,3-.07,4.45-.2l.47,0V585c0-1.13-2.55-113.41,31.57-138.73,6.3-4.68,14.54-5.36,21.76-5.62l38.77-1.44.12-.28a19.07,19.07,0,0,0,1.38-10.47l0-.32-.31-.09c-5.28-1.5-10.62-3.16-15.78-4.77S17,420,11.71,418.49c-9.18-2.6-19.57-5.55-26.94-12.62-1-6.79-.16-14.5,2.49-23.54,1.13-3.83,2.49-7.67,3.8-11.38s2.66-7.52,3.78-11.35a111.73,111.73,0,0,0,.76-60.45l-.06-.23-.21-.1a39.69,39.69,0,0,0-10-3.24l-.14,0-.14.05a7.4,7.4,0,0,0-4.23,5.95l0,.31.27.17a38.31,38.31,0,0,0,8.07,3.56,38.53,38.53,0,0,1-14.83,24.45,59.52,59.52,0,0,1-32.59-12.58,69,69,0,0,1,2.55-42.34,36.51,36.51,0,0,1,5.39-9.87,18.91,18.91,0,0,1,8.93-6.41c8.46-2.64,18.09-3.93,29.45-3.93,9.6,0,19.4.89,28.87,1.75,2.33.21,4.64.42,6.94.61,4,.35,7.82.84,10.69,3.14l.59.47.21-.72A216.73,216.73,0,0,1,45.58,232c3-6.77,6.67-13.65,12.56-18,2.56-.37,43.22-6.21,71.82-6.21a111.75,111.75,0,0,1,17.79,1.14l0,.06.23,0,.59,3.32.34-3.7a85,85,0,0,0-.27-18c-.32-2.54-.8-5.44-2.59-7.67l-.5-.63-.34.73a10.23,10.23,0,0,1-7.19,5.38,14,14,0,0,1-2.94.3,20.6,20.6,0,0,1-6.37-1.11,17.55,17.55,0,0,1-5.8-3,9.6,9.6,0,0,1-3.38-5.32c-1.34-6.61,0-14.3,4-22.83a19.69,19.69,0,0,1,2.7-4.47,10,10,0,0,1,4-3A72.26,72.26,0,0,1,155.64,144a56.23,56.23,0,0,1,17.43,2.67,29.94,29.94,0,0,1,13.67,9,45.85,45.85,0,0,1,4.86,7.7c.36.67.72,1.34,1.09,2,1.76,3.17,4,6.71,7.29,9.05a12.84,12.84,0,0,0,7.25,2.43,9.25,9.25,0,0,0,4.11-.93,36.89,36.89,0,0,1,16.54-3.55,61.62,61.62,0,0,1,17.83,2.84,32.1,32.1,0,0,0,1.66,9l.16.54.52-.23a17.18,17.18,0,0,1,6.8-1.27,24.12,24.12,0,0,1,4.11.36l.61.1,0-.61a139,139,0,0,1,1.35-19.92c.3-2.58.61-5.24.85-7.84.79-8.41,1.19-18.26-1.72-27.55a14.59,14.59,0,0,0-3.28-6.07l-.42-.42-1.06,1.53v.14a14.54,14.54,0,0,1-3.58,8.35,13.33,13.33,0,0,1-10.36,4.63,14.25,14.25,0,0,1-4.43-.69,18.15,18.15,0,0,1-11-11.37c-1.38-3.91-1.1-8-.8-12.26.05-.67.09-1.34.13-2a31.75,31.75,0,0,1,3.77-13.91,27.05,27.05,0,0,1,12.27-10.88,65.27,65.27,0,0,1,26.87-6.12,51.19,51.19,0,0,1,5.44.28,35.68,35.68,0,0,1,24,12.85l.39.49.39-.49a35.66,35.66,0,0,1,24-12.85,50.86,50.86,0,0,1,5.43-.28,65.27,65.27,0,0,1,26.88,6.12,27.1,27.1,0,0,1,12.27,10.88,31.61,31.61,0,0,1,3.76,13.91c0,.67.09,1.34.14,2,.3,4.29.58,8.35-.81,12.26a18.13,18.13,0,0,1-11.05,11.37,14.14,14.14,0,0,1-4.42.69,13.33,13.33,0,0,1-10.36-4.63,14.48,14.48,0,0,1-3.58-8.35v-.14l-1.06-1.53-.42.42a14.47,14.47,0,0,0-3.28,6.07c-2.91,9.29-2.51,19.14-1.72,27.55.24,2.6.55,5.27.85,7.85A140.23,140.23,0,0,1,336.27,183l0,.61.6-.1a24.33,24.33,0,0,1,4.12-.36,17.22,17.22,0,0,1,6.8,1.27l.51.23.17-.54a32.1,32.1,0,0,0,1.66-9,61.62,61.62,0,0,1,17.83-2.84,36.89,36.89,0,0,1,16.54,3.55,9.12,9.12,0,0,0,4.11.93,12.84,12.84,0,0,0,7.25-2.43c3.28-2.33,5.53-5.88,7.29-9.05.37-.66.73-1.33,1.09-2a45.85,45.85,0,0,1,4.86-7.7,29.89,29.89,0,0,1,13.67-9A56.23,56.23,0,0,1,440.18,144a72.3,72.3,0,0,1,25.33,4.83,10,10,0,0,1,4,3,20.06,20.06,0,0,1,2.7,4.47c4,8.54,5.36,16.22,4,22.83a9.52,9.52,0,0,1-3.37,5.32,17.55,17.55,0,0,1-5.8,3,20.6,20.6,0,0,1-6.37,1.11,14,14,0,0,1-2.94-.3,10.23,10.23,0,0,1-7.19-5.38l-.34-.73-.51.63c-1.78,2.23-2.26,5.13-2.58,7.67a85,85,0,0,0-.28,18l.34,3.64.6-3.3a111.3,111.3,0,0,1,18-1.18c28.6,0,69.26,5.84,71.82,6.21,5.89,4.4,9.51,11.27,12.56,18a219.15,219.15,0,0,1,10.23,28.21l.21.72.58-.47c2.87-2.3,6.7-2.79,10.7-3.14,2.3-.19,4.61-.4,6.94-.61,9.47-.86,19.27-1.75,28.86-1.75,11.36,0,21,1.29,29.46,3.93a19,19,0,0,1,8.93,6.41,36.63,36.63,0,0,1,5.39,9.87,69.11,69.11,0,0,1,2.55,42.34,59.52,59.52,0,0,1-32.59,12.58,38.53,38.53,0,0,1-14.83-24.45,38.53,38.53,0,0,0,8.07-3.56l.27-.17,0-.31a7.37,7.37,0,0,0-4.22-5.95l-.14-.05-.14,0a39.69,39.69,0,0,0-10,3.24l-.21.1-.06.23A111.73,111.73,0,0,0,601,359.6c1.13,3.83,2.48,7.65,3.79,11.35s2.67,7.55,3.79,11.38c2.66,9,3.48,16.74,2.5,23.54-7.37,7.07-17.76,10-26.94,12.62-5.29,1.5-10.63,3.17-15.8,4.78s-10.49,3.27-15.77,4.77l-.31.09-.05.32a19.26,19.26,0,0,0,1.38,10.47l.13.28,38.77,1.44c7.22.26,15.45.94,21.76,5.62,17.79,13.2,25.43,50.19,28.71,78.89A486.24,486.24,0,0,1,645.79,585v.47l.47,0c1.47.13,3,.2,4.45.2a49.15,49.15,0,0,0,10.68-1.17,9,9,0,0,0,4.92-2.35c1.9-2.1,1.71-5.22,1.29-8a137,137,0,0,0-5.22-23.24,56.74,56.74,0,0,1,14.54-2,47.43,47.43,0,0,1,8.18.7c15.92,19.69,19.92,48.18,10,71.05A157.5,157.5,0,0,1,648,628a148,148,0,0,1-24.55-2l-.39-.07-.15.37c-1.24,3-2.4,6-3.52,9s-2.23,5.84-3.42,8.73a292.75,292.75,0,0,1-100.16,28.13l-.42,0,0,.41a155.23,155.23,0,0,0-.44,15.56,14.77,14.77,0,0,0,1.11,6.2,6.2,6.2,0,0,0,5.21,3.45,3.25,3.25,0,0,0,.44,0l.45,0v-.45a8,8,0,0,1,3.77-6.38,16.62,16.62,0,0,1,7.51-2.43l1.28-.16a48.72,48.72,0,0,1,6-.51c3.22,0,5.45.68,7,2.15,1.26,1.18,1.42,3.2,1.46,5,0,1.13.06,2.26.1,3.39.27,8.84.54,18-2.7,26.19a8.58,8.58,0,0,1-4.18,4.27,24.2,24.2,0,0,1-6,1.91,189.51,189.51,0,0,1-40.34,4.48c-9.87-7.12-15-17.81-17.5-25.55-3.45-10.52-4.42-21.76-4.91-31.35l0-.61-.58.15a585.44,585.44,0,0,1-104,16.14c-1.55.11-2.83,1.4-3.44,3.46a62.71,62.71,0,0,0-2.64,22.2l0,.37.35.09,3.12.81,3.15.81.7.18-.08-.72a6.71,6.71,0,0,1,1.78-5.25,8.69,8.69,0,0,1,6.3-3h.1c4,0,8.17,2.74,10.5,7s2.77,9.28,2.89,13.19c0,1.22.17,2.54.31,4,.46,4.77,1,10.17-2,13.19C379.55,760.87,365.77,763.13,356.08,763.13Z" transform="translate(105.14 -78.15)"/>
    <path class="cls-2" d="M327.73,78.15v1a64.93,64.93,0,0,1,26.67,6.07,26.5,26.5,0,0,1,12,10.68,31,31,0,0,1,3.71,13.68c0,.68.08,1.35.13,2,.29,4.24.57,8.24-.78,12a17.85,17.85,0,0,1-10.73,11.06,13.53,13.53,0,0,1-4.27.67,12.82,12.82,0,0,1-10-4.44,14.08,14.08,0,0,1-3.47-8.08l0-.27-.16-.22-.15-.22-.49-.71-.68-1-.84.83a15,15,0,0,0-3.41,6.28c-2.94,9.37-2.53,19.29-1.74,27.75.24,2.6.55,5.27.85,7.85A139.55,139.55,0,0,1,335.77,183l0,1.23,1.21-.21a23.27,23.27,0,0,1,4-.35,16.57,16.57,0,0,1,6.6,1.23l1,.45.33-1.07a34,34,0,0,0,1.67-8.74,61.09,61.09,0,0,1,17.34-2.71,36.52,36.52,0,0,1,16.32,3.5,9.66,9.66,0,0,0,4.33,1,13.21,13.21,0,0,0,7.54-2.52c3.36-2.4,5.65-6,7.44-9.22.37-.66.73-1.33,1.09-2a44.51,44.51,0,0,1,4.81-7.62,29.3,29.3,0,0,1,13.44-8.8,55.46,55.46,0,0,1,17.27-2.65,71.74,71.74,0,0,1,25.15,4.8,9.36,9.36,0,0,1,3.83,2.88,19.3,19.3,0,0,1,2.64,4.36c4,8.44,5.3,16,4,22.52a9.12,9.12,0,0,1-3.21,5,16.77,16.77,0,0,1-5.64,2.92,19.84,19.84,0,0,1-6.21,1.09,13.15,13.15,0,0,1-2.84-.29,9.76,9.76,0,0,1-6.84-5.1l-.67-1.47-1,1.27c-1.77,2.22-2.34,5.12-2.68,7.92a84.63,84.63,0,0,0-.28,18.14l.67,7.39,1.19-6.66a113.77,113.77,0,0,1,17.61-1.11c28.17,0,68.09,5.68,71.62,6.19,5.74,4.33,9.3,11.09,12.3,17.77A216.05,216.05,0,0,1,560,260.31l.42,1.44,1.17-.94c2.76-2.21,6.5-2.69,10.42-3,2.3-.19,4.62-.4,6.94-.61,9.47-.86,19.25-1.75,28.82-1.75,11.31,0,20.9,1.28,29.31,3.91a18.45,18.45,0,0,1,8.69,6.24,36,36,0,0,1,5.31,9.74,68.59,68.59,0,0,1,2.58,41.87,59,59,0,0,1-32,12.36,38.06,38.06,0,0,1-14.41-23.6,37.62,37.62,0,0,0,7.77-3.47l.54-.34-.08-.63a7.85,7.85,0,0,0-4.53-6.35l-.27-.11-.28,0a39.78,39.78,0,0,0-10.11,3.28l-.42.19-.13.46a112.32,112.32,0,0,0,.77,60.72c1.13,3.85,2.48,7.68,3.79,11.38s2.66,7.53,3.78,11.35c2.62,8.9,3.44,16.48,2.51,23.16-7.27,6.9-17.54,9.81-26.6,12.38-5.3,1.5-10.65,3.17-15.81,4.78s-10.49,3.27-15.76,4.77l-.63.18-.09.64a19.57,19.57,0,0,0,1.42,10.74l.25.57.62,0,37.09,1.38,1.37.05c7.15.26,15.29.93,21.49,5.53,17.64,13.09,25.24,49.92,28.5,78.51A485.46,485.46,0,0,1,645.29,585l0,.94.93.09c1.49.13,3,.2,4.5.2A50,50,0,0,0,661.48,585a9.4,9.4,0,0,0,5.2-2.51c2-2.25,1.85-5.51,1.4-8.41A138.68,138.68,0,0,0,663,551.29a56.17,56.17,0,0,1,13.91-1.81,47.31,47.31,0,0,1,7.9.66c15.66,19.48,19.61,47.57,9.88,70.18A157,157,0,0,1,648,627.49a146,146,0,0,1-24.47-2l-.78-.13-.31.74c-1.23,3-2.39,6-3.51,9s-2.18,5.72-3.35,8.56a292.42,292.42,0,0,1-99.82,28l-.83.08-.07.83c-.41,5.17-.55,10.42-.44,15.61a15.07,15.07,0,0,0,1.16,6.41,6.73,6.73,0,0,0,5.66,3.73,4,4,0,0,0,.49,0l.9-.09v-.9a7.52,7.52,0,0,1,3.55-6,16.06,16.06,0,0,1,7.29-2.35l1.28-.16a48.25,48.25,0,0,1,6-.51c3.09,0,5.21.64,6.68,2,1.12,1,1.26,2.94,1.3,4.63,0,1.13.06,2.26.1,3.4.26,8.78.54,17.87-2.66,26a8.06,8.06,0,0,1-3.95,4,23.8,23.8,0,0,1-5.9,1.87,188.82,188.82,0,0,1-40.07,4.47c-9.67-7-14.68-17.57-17.18-25.2-3.43-10.48-4.4-21.67-4.89-31.23l-.07-1.2-1.17.28A585.34,585.34,0,0,1,369,693.39c-1.76.12-3.21,1.54-3.88,3.81a63.44,63.44,0,0,0-2.66,22.38l0,.72.71.18,3.12.81,3.15.82,1.41.35L370.7,721a6.28,6.28,0,0,1,1.66-4.86,8.33,8.33,0,0,1,5.93-2.83h.1c3.86,0,7.82,2.64,10.06,6.72s2.72,9.1,2.83,13c0,1.23.17,2.56.31,4,.45,4.65,1,9.93-1.84,12.79-10.44,10.62-24.07,12.85-33.67,12.85a65.21,65.21,0,0,1-8.88-.62,48.49,48.49,0,0,1-27.3-13.64,282.52,282.52,0,0,1-5.61-32.43c-.31-2.8-.59-5.64-.82-8.44,0-.39,0-1.12,0-1.88.06-3,0-5.2-.8-6.21s-2.17-1.33-4.44-1.33a52.49,52.49,0,0,0-7.91.9c-1,.16-1.79.3-2.41.38-.62-.08-1.46-.22-2.41-.38a52.49,52.49,0,0,0-7.91-.9c-2.27,0-3.68.42-4.44,1.33s-.87,3.21-.8,6.21c0,.76,0,1.49,0,1.88-.23,2.8-.51,5.64-.82,8.44a280.4,280.4,0,0,1-5.62,32.43A48.43,48.43,0,0,1,248.62,762a65.21,65.21,0,0,1-8.88.62c-9.6,0-23.24-2.23-33.67-12.85-2.81-2.86-2.29-8.14-1.84-12.79.14-1.42.27-2.75.31-4,.11-3.86.54-8.82,2.82-13s6.2-6.72,10.07-6.72h.1a8.29,8.29,0,0,1,5.92,2.83,6.25,6.25,0,0,1,1.67,4.86l-.18,1.44,1.41-.35,3.15-.82,3.12-.81.7-.18.05-.72a63.44,63.44,0,0,0-2.66-22.38c-.67-2.24-2.11-3.67-3.87-3.81a776.88,776.88,0,0,1-104-16.14l-1.16-.26-.06,1.18c-.49,9.56-1.46,20.75-4.89,31.23-2.5,7.63-7.51,18.16-17.19,25.2a188.8,188.8,0,0,1-40.06-4.47,23.8,23.8,0,0,1-5.9-1.87,8.06,8.06,0,0,1-3.95-4c-3.2-8.11-2.93-17.2-2.66-26,0-1.14.07-2.27.1-3.4,0-1.69.18-3.58,1.3-4.63,1.47-1.38,3.59-2,6.67-2a48.25,48.25,0,0,1,6,.51l1.28.16a16.1,16.1,0,0,1,7.29,2.35,7.52,7.52,0,0,1,3.55,6v.9l.9.09a3.91,3.91,0,0,0,.49,0,6.73,6.73,0,0,0,5.66-3.73,15.06,15.06,0,0,0,1.15-6.41A153.37,153.37,0,0,0,81,672.47l-.07-.83-.83-.08a292.42,292.42,0,0,1-99.82-28c-1.17-2.84-2.28-5.74-3.35-8.56s-2.28-6-3.51-9l-.31-.74-.79.13a145.84,145.84,0,0,1-24.46,2,157,157,0,0,1-46.7-7.17c-9.72-22.61-5.77-50.7,9.88-70.18a47.52,47.52,0,0,1,7.91-.66,56,56,0,0,1,13.9,1.81,140.77,140.77,0,0,0-5.07,22.81c-.44,2.9-.62,6.16,1.41,8.41A9.4,9.4,0,0,0-65.67,585a50.1,50.1,0,0,0,10.79,1.18c1.49,0,3-.07,4.5-.2l.93-.09,0-.94a489,489,0,0,1,2.87-59.79c3.26-28.59,10.86-65.42,28.5-78.51,6.2-4.6,14.34-5.27,21.49-5.53l38.45-1.43.63,0,.25-.57a19.57,19.57,0,0,0,1.42-10.74l-.09-.64-.63-.18c-5.27-1.5-10.6-3.16-15.76-4.77S17.14,419.51,11.84,418c-9.07-2.57-19.33-5.48-26.6-12.38-.93-6.68-.11-14.26,2.5-23.16,1.12-3.82,2.48-7.65,3.79-11.35s2.66-7.53,3.79-11.38A112.22,112.22,0,0,0-3.92,299l-.12-.46-.43-.19a39.59,39.59,0,0,0-10.1-3.28l-.28,0-.27.11a7.85,7.85,0,0,0-4.53,6.35l-.08.63.54.34a37.62,37.62,0,0,0,7.77,3.47,38,38,0,0,1-14.41,23.6,59,59,0,0,1-32-12.36,68.52,68.52,0,0,1,2.58-41.87,36,36,0,0,1,5.31-9.74,18.42,18.42,0,0,1,8.68-6.24c8.42-2.63,18-3.91,29.31-3.91,9.57,0,19.36.89,28.83,1.75,2.32.21,4.64.42,6.94.61,3.91.34,7.66.82,10.42,3l1.17.94.42-1.44A216.05,216.05,0,0,1,46,232.17c3-6.68,6.56-13.44,12.3-17.77,3.53-.51,43.45-6.19,71.62-6.19a113.77,113.77,0,0,1,17.61,1.11l1.18,6.66.68-7.39a85.28,85.28,0,0,0-.28-18.14c-.34-2.8-.91-5.7-2.69-7.92l-1-1.27-.68,1.47a9.72,9.72,0,0,1-6.84,5.1,13,13,0,0,1-2.83.29,20,20,0,0,1-6.22-1.09,16.81,16.81,0,0,1-5.63-2.92,9.12,9.12,0,0,1-3.21-5c-1.32-6.51,0-14.08,4-22.52a19.67,19.67,0,0,1,2.63-4.36,9.45,9.45,0,0,1,3.84-2.88,71.74,71.74,0,0,1,25.15-4.8,55.5,55.5,0,0,1,17.27,2.65,29.36,29.36,0,0,1,13.44,8.8,44.51,44.51,0,0,1,4.81,7.62c.36.67.72,1.34,1.09,2,1.79,3.22,4.08,6.82,7.44,9.22a13.19,13.19,0,0,0,7.54,2.52,9.66,9.66,0,0,0,4.33-1,36.46,36.46,0,0,1,16.32-3.5,61.09,61.09,0,0,1,17.34,2.71,33.59,33.59,0,0,0,1.67,8.74l.33,1.07,1-.45a16.53,16.53,0,0,1,6.6-1.23,23.27,23.27,0,0,1,4,.35l1.21.21,0-1.23a139.55,139.55,0,0,1,1.35-19.84c.3-2.58.61-5.25.85-7.85.79-8.46,1.2-18.38-1.74-27.75a15.07,15.07,0,0,0-3.41-6.28l-.85-.83-.67,1-.49.71-.16.22-.15.22,0,.27a14.08,14.08,0,0,1-3.47,8.08,12.82,12.82,0,0,1-10,4.44,13.53,13.53,0,0,1-4.27-.67,17.87,17.87,0,0,1-10.74-11.06c-1.34-3.81-1.07-7.81-.77-12,.05-.68.09-1.35.13-2a31,31,0,0,1,3.71-13.68,26.5,26.5,0,0,1,12-10.68,64.92,64.92,0,0,1,26.66-6.07,52.86,52.86,0,0,1,5.39.27A35.19,35.19,0,0,1,297.13,92.1l.78,1,.78-1a35.17,35.17,0,0,1,23.66-12.68,52.8,52.8,0,0,1,5.38-.27v-1m0,0a52.84,52.84,0,0,0-5.49.28,36.25,36.25,0,0,0-24.33,13h0a36.25,36.25,0,0,0-24.33-13,53,53,0,0,0-5.5-.28A66.25,66.25,0,0,0,241,84.31,27.47,27.47,0,0,0,228.51,95.4a32.25,32.25,0,0,0-3.84,14.13c-.29,4.91-.94,9.83.7,14.47,1.88,5.3,6,9.92,11.37,11.67a14.48,14.48,0,0,0,4.58.72,13.85,13.85,0,0,0,10.75-4.81,15.14,15.14,0,0,0,3.69-8.63l.64-.93a13.75,13.75,0,0,1,3.15,5.86c2.75,8.78,2.56,18.2,1.7,27.35s-2.47,18.63-2.2,27.82a25.32,25.32,0,0,0-4.2-.36,17.55,17.55,0,0,0-7,1.32,30.49,30.49,0,0,1-1.63-9.19,63,63,0,0,0-18.34-3,37.59,37.59,0,0,0-16.76,3.6,8.65,8.65,0,0,1-3.89.88,12.22,12.22,0,0,1-7-2.34c-3.12-2.22-5.28-5.53-7.14-8.88s-3.54-6.85-6-9.78a30.38,30.38,0,0,0-13.9-9.11,56.32,56.32,0,0,0-17.58-2.7,72.4,72.4,0,0,0-25.51,4.86,10.56,10.56,0,0,0-4.25,3.18,21,21,0,0,0-2.77,4.57c-3.38,7.21-5.64,15.35-4,23.15a10.13,10.13,0,0,0,3.55,5.6,18,18,0,0,0,6,3.1,21.15,21.15,0,0,0,6.53,1.14,14.13,14.13,0,0,0,3-.31,10.76,10.76,0,0,0,7.54-5.66c1.66,2.06,2.16,4.8,2.48,7.42a84.64,84.64,0,0,1,.28,17.93s-.05,0-.09,0h-.08s-.08,0-.09-.05a112.09,112.09,0,0,0-18.22-1.2c-29.77,0-72,6.24-72,6.24-6.06,4.47-9.73,11.43-12.82,18.31A216.31,216.31,0,0,0,34.87,260c-3-2.42-7.11-2.91-11-3.24-11.78-1-23.9-2.37-35.85-2.37-10.09,0-20.06,1-29.6,4A19.49,19.49,0,0,0-50.72,265a37.32,37.32,0,0,0-5.46,10,69.37,69.37,0,0,0-2.53,42.82,60.07,60.07,0,0,0,33.18,12.8,39.13,39.13,0,0,0,15.24-25.3,38.72,38.72,0,0,1-8.37-3.64,6.89,6.89,0,0,1,3.92-5.55,39.52,39.52,0,0,1,9.86,3.21,112,112,0,0,1-.76,60.18c-2.25,7.66-5.33,15.06-7.58,22.73s-3.66,16-2.48,23.92C-8.41,413.18,1.79,416.2,11.57,419c10.57,3,21,6.55,31.57,9.55a18.71,18.71,0,0,1-1.34,10.19L3.34,440.14c-7.79.29-15.78,1.08-22,5.72C-53.42,471.62-50.47,585-50.47,585c-1.47.13-2.94.2-4.41.2a49.45,49.45,0,0,1-10.57-1.15,8.6,8.6,0,0,1-4.67-2.21c-1.77-2-1.56-5-1.16-7.59,1.22-7.92,2.73-16.08,5.38-23.65a57.67,57.67,0,0,0-15.2-2.12,47.74,47.74,0,0,0-8.45.74c-16,19.67-20.26,48.7-10.07,71.92a158.7,158.7,0,0,0,47.43,7.35,147.34,147.34,0,0,0,24.63-2c2.46,5.92,4.56,11.94,7,17.86A293.77,293.77,0,0,0,80,672.55a151.3,151.3,0,0,1,.43,15.5,14.17,14.17,0,0,1-1,6,5.76,5.76,0,0,1-4.76,3.17l-.39,0a8.55,8.55,0,0,0-4-6.79,17.45,17.45,0,0,0-7.73-2.52,63.82,63.82,0,0,0-7.38-.67c-2.8,0-5.45.51-7.35,2.29-1.4,1.3-1.58,3.43-1.62,5.34-.24,10-1.06,20.41,2.63,29.77a9.1,9.1,0,0,0,4.42,4.53,24.71,24.71,0,0,0,6.14,2,190.07,190.07,0,0,0,40.55,4.49h.06c8.66-6.2,14.49-15.77,17.81-25.89s4.39-20.85,4.94-31.49a778.13,778.13,0,0,0,104.1,16.16c1.57.13,2.54,1.6,3,3.11a62.19,62.19,0,0,1,2.62,22l-6.26,1.63c.56-4.59-4-8.76-8.57-8.81h-.11c-4.58,0-8.73,3.22-10.94,7.23s-2.81,8.8-3,13.42c-.17,5.39-2.22,13.4,1.82,17.5,9.13,9.29,21.7,13.15,34.38,13.15a66.26,66.26,0,0,0,9-.63,49.55,49.55,0,0,0,28.06-14.13,280.78,280.78,0,0,0,5.7-32.82c.32-2.82.59-5.64.83-8.47.12-1.53-.38-6.41.57-7.53.6-.72,2-1,3.67-1,3.44,0,8.17,1,10.32,1.28,2.15-.24,6.88-1.28,10.32-1.28,1.69,0,3.07.25,3.67,1,.94,1.12.45,6,.57,7.53q.34,4.24.83,8.47A280.76,280.76,0,0,0,319,748.87,49.61,49.61,0,0,0,347.06,763a66.26,66.26,0,0,0,9,.63c12.68,0,25.25-3.86,34.38-13.15,4-4.1,2-12.11,1.82-17.5-.14-4.62-.72-9.37-2.95-13.42s-6.36-7.23-10.94-7.23h-.11c-4.62,0-9.13,4.22-8.57,8.81-1.85-.47-4.42-1.16-6.26-1.63a62.19,62.19,0,0,1,2.62-22c.44-1.51,1.42-3,3-3.11a586,586,0,0,0,104.1-16.16c.55,10.64,1.62,21.36,4.94,31.49s9.15,19.69,17.81,25.89H496a190.14,190.14,0,0,0,40.55-4.49,24.71,24.71,0,0,0,6.14-2,9.14,9.14,0,0,0,4.42-4.53c3.69-9.36,2.87-19.72,2.63-29.77-.05-1.91-.22-4-1.62-5.34-1.9-1.78-4.55-2.29-7.36-2.29a63.84,63.84,0,0,0-7.37.67,17.45,17.45,0,0,0-7.73,2.52,8.55,8.55,0,0,0-4,6.79l-.39,0a5.75,5.75,0,0,1-4.76-3.17,14.33,14.33,0,0,1-1.06-6,154.21,154.21,0,0,1,.44-15.5,293.77,293.77,0,0,0,100.5-28.25c2.45-5.92,4.55-11.94,7-17.86a147.25,147.25,0,0,0,24.63,2,158.7,158.7,0,0,0,47.43-7.35c10.19-23.22,5.93-52.25-10.07-71.92a47.74,47.74,0,0,0-8.45-.74,57.67,57.67,0,0,0-15.2,2.12,133.46,133.46,0,0,1,5.37,23.65c.41,2.62.62,5.63-1.16,7.59a8.54,8.54,0,0,1-4.66,2.21,49.45,49.45,0,0,1-10.57,1.15c-1.47,0-2.94-.07-4.41-.2,0,0,3-113.38-31.77-139.14-6.26-4.64-14.25-5.43-22-5.72L554,438.71a18.71,18.71,0,0,1-1.34-10.19c10.57-3,21-6.55,31.57-9.55,9.77-2.77,20-5.79,27.27-12.86,1.17-7.9-.24-16.26-2.49-23.92s-5.32-15.07-7.58-22.73a112,112,0,0,1-.75-60.18,39.45,39.45,0,0,1,9.85-3.21,6.9,6.9,0,0,1,3.93,5.55,38.72,38.72,0,0,1-8.37,3.64,39.13,39.13,0,0,0,15.24,25.3,60.09,60.09,0,0,0,33.18-12.8A69.37,69.37,0,0,0,652,274.94a37.08,37.08,0,0,0-5.47-10,19.46,19.46,0,0,0-9.16-6.57c-9.54-3-19.51-4-29.61-4-11.94,0-24.06,1.36-35.84,2.37-3.86.33-7.95.82-11,3.24a217.82,217.82,0,0,0-10.26-28.27c-3.08-6.88-6.75-13.84-12.82-18.31,0,0-42.24-6.24-72-6.24a112.3,112.3,0,0,0-18.23,1.2s0,.05-.08.05h-.08s-.08,0-.09,0a84.64,84.64,0,0,1,.28-17.93c.32-2.62.82-5.36,2.47-7.42a10.8,10.8,0,0,0,7.55,5.66,14.13,14.13,0,0,0,3,.31,21.08,21.08,0,0,0,6.52-1.14,18,18,0,0,0,6-3.1,10.13,10.13,0,0,0,3.55-5.6c1.59-7.8-.67-15.94-4.06-23.15a20.64,20.64,0,0,0-2.77-4.57,10.46,10.46,0,0,0-4.24-3.18,72.44,72.44,0,0,0-25.51-4.86,56.32,56.32,0,0,0-17.58,2.7,30.33,30.33,0,0,0-13.9,9.11c-2.47,2.93-4.14,6.43-6,9.78s-4,6.66-7.14,8.88a12.22,12.22,0,0,1-7,2.34,8.65,8.65,0,0,1-3.89-.88,37.62,37.62,0,0,0-16.76-3.6,63,63,0,0,0-18.34,3A30.49,30.49,0,0,1,348,184a17.58,17.58,0,0,0-7-1.32,25.32,25.32,0,0,0-4.2.36c.27-9.19-1.35-18.66-2.21-27.82s-1.05-18.57,1.71-27.35a13.75,13.75,0,0,1,3.15-5.86l.64.93a15,15,0,0,0,3.69,8.63,13.85,13.85,0,0,0,10.75,4.81,14.48,14.48,0,0,0,4.58-.72c5.34-1.75,9.49-6.37,11.37-11.67,1.64-4.64,1-9.56.69-14.47a32.11,32.11,0,0,0-3.83-14.13,27.57,27.57,0,0,0-12.49-11.09,66.29,66.29,0,0,0-27.09-6.16Z" transform="translate(105.14 -78.15)"/>
  </g>
  <g id="azulGrandeIzq">
    <path class="cls-1" d="M237.74,749.05a37.78,37.78,0,0,1-17.85-4.38c-1.63-4-1.71-8.56-1.6-12.67a25.61,25.61,0,0,0,10.31,2.48,15.25,15.25,0,0,0,3.36-.35,22.54,22.54,0,0,0,12.24-7.31l.08-.1,0-.12c3.55-16.61-.38-34.53-10.78-49.18l-.15-.2h-.24c-26-.85-52.15-5.5-77.39-10L119.1,660.7a9.51,9.51,0,0,0-9.79,4.29c-1.94,2.81-2.81,6.56-2.58,11.15a62.26,62.26,0,0,0,.75,6.46c.23,1.57.48,3.2.63,4.79a43.49,43.49,0,0,1-10.25,31.94A48.52,48.52,0,0,1,85,721c-9.44,0-18.93-2.47-26.59-4.49a37.72,37.72,0,0,1-2.53-16.67l2.46.39,2.56.39a11.55,11.55,0,0,0,6.72,9.28l.06,0h.07a47,47,0,0,0,6.8.53,31.05,31.05,0,0,0,7.39-.84l.09,0,.09-.06a30.67,30.67,0,0,0,7.81-7.81,34.33,34.33,0,0,0,4.85-14.2A41.43,41.43,0,0,0,87.55,659l-.13-.17-.21,0c-32.13-4.76-65.36-9.68-94.59-25.21-4.33-9.46-8.9-16.21-14.79-21.89l-.21-.19-.27.07a148.4,148.4,0,0,1-39.62,5.25,169.81,169.81,0,0,1-29.11-2.57c-5.31-17.52-3.27-37.92,5.46-54.69a19.4,19.4,0,0,1,3.69-.33,24,24,0,0,1,5.26.58,56.37,56.37,0,0,0-5.09,17.35c-.4,3.1-.61,7.08,1.32,10.34,2.34,4,7.29,6.16,11,7.32A43.1,43.1,0,0,0-57,596.42a95.54,95.54,0,0,0,12-.75l.14,0,.12-.09a20.63,20.63,0,0,0,5.37-6.22l.07-.12v-.14C-41.85,550.91-35.14,511-20,473.62c2.46-6.07,5.54-12.94,10.88-17.62C-4,451.53,3,450.61,12,450.61c1.45,0,2.9,0,4.33,0s2.84,0,4.23,0c1.77,0,3.21,0,4.54-.1a326.88,326.88,0,0,0,51.29-6.88,51.09,51.09,0,0,1,2.1,5.17,21.18,21.18,0,0,1,1.24,6,6.16,6.16,0,0,1-.07.88,4.47,4.47,0,0,0,.06,1.94c.38,1,1.4,1,2.08,1.08h.15c.28,0,.57,0,.85,0a11,11,0,0,0,5.32-1.36c4.24-2.36,6.14-8,5.81-17.13-.21-5.6-2.63-16.62-10.35-18.29-8.79-1.88-18.15-3.92-27.54-6.27-18.19-4.54-36.42-9.9-54.17-15.93L0,399.26C-.45,386.14,2.69,373.94,6,361c1.19-4.6,2.41-9.36,3.45-14.13,3.43-15.8,6.37-36.21-1.37-54L8,292.78l-.13-.08a43.47,43.47,0,0,0-23.21-6.79,41.11,41.11,0,0,0-11.41,1.6l-.17.05-.11.15a22.25,22.25,0,0,0-2.45,18l.05.19.17.1a32.64,32.64,0,0,0,8.57,3.47,17.06,17.06,0,0,1-8.52,11.3A38,38,0,0,1-47,310.36c-.81-8.9.79-18.25,2.33-27.28l.47-2.76.42-.46c3-3.26,5.3-5.83,9-8.22a7.22,7.22,0,0,1,3.71-1.49,3.53,3.53,0,0,1,.56.05h.12c4.46-.37,9.22-.55,14.14-.55,14.39,0,29.12,1.57,41.83,3.06,10,24,14.21,48.51,12.6,72.83l0,.37.35.13a13.33,13.33,0,0,0,4.69.86,12.9,12.9,0,0,0,1.76-.12l.32-.05.09-.32a128,128,0,0,0-3.21-75.5,151.82,151.82,0,0,1,11.8-34.48,26.7,26.7,0,0,1,4.37-6.89,9.9,9.9,0,0,1,6.92-3.32h.14c15.94-2.35,34.69-4.86,52.89-5.59,3.07-.12,6.1-.18,9-.18,16.1,0,30.22,1.81,43.17,5.53,4.18,1.21,5.78,6.76,6.8,12a71.25,71.25,0,0,1,.79,14.43l-.41,32.15c-.09,6.8-.6,14.39-5.57,18.7a105.24,105.24,0,0,1-19.71,1.85,83.12,83.12,0,0,1-18.6-2c-.91-1.5-7.26-12.36-4.4-19.38a10.08,10.08,0,0,1,4.91-1.28,10.21,10.21,0,0,1,2.13.23c.43,1.62,2.59,9.05,5.85,10.14a55.34,55.34,0,0,0,7.29.52,22.68,22.68,0,0,0,5.31-.51l.2,0,.11-.18c.32-.56,7.84-14-2.21-40.75l-.07-.2-.2-.09c-.13,0-13-5.36-32.58-5.36a115.12,115.12,0,0,0-46.14,9.81,3.88,3.88,0,0,0-2.44,1.51c-4.78,5.37-11.3,27.09-1.29,112.17v.07l0,.07c.18.42,5.45,10.39,82.56,20.36-3.09,6-26.46,52-27.71,85.36-6.52.2-78.49,2.57-108.27,8.95l-.21.05-.11.19c-.26.45-25.65,45.9-6.78,125.81l.07.28.26.08c.39.13,39.15,12.58,76.59,12.58,3,0,5.91-.07,8.72-.23h.06l0,0c.28-.08,6.82-2,7.53-5.24,2.3-10.36,3.23-21.66,2.91-35.57v-.23l-.18-.15c-.5-.4-1-.86-1.56-1.34-2.74-2.41-6.5-5.71-13-7.06a7.81,7.81,0,0,0-1.54-.15,8.58,8.58,0,0,0-5.25,1.84,6.25,6.25,0,0,0-2.32,6,19,19,0,0,1-3.34.31,17.77,17.77,0,0,1-8.82-2.33,31.47,31.47,0,0,1-.4-14.87A142.26,142.26,0,0,1,86.84,560a51.82,51.82,0,0,1,9.38-.92,37.08,37.08,0,0,1,7.89.82c5.41,1.19,10.39,3.67,16.17,7,2.22,8.11,2,16.7,1.78,25-.21,8-.43,16.19,1.49,24.09l.06.24.23.1c40.09,16.83,83.61,26.42,121.25,34.09,7.53,1.53,13.91,7.43,18,16.62a53.6,53.6,0,0,1,4,26.94c-.64,5.25-1.15,10.71-1.63,16-1,10.54-2,21.43-4.14,31.67A41.86,41.86,0,0,1,237.74,749.05Z" transform="translate(105.14 -78.15)"/>
    <path class="cls-2" d="M127.27,221c16,0,30.12,1.8,43,5.51,3.92,1.13,5.46,6.52,6.45,11.65a71.7,71.7,0,0,1,.78,14.34v.4l-.41,31.75c-.09,6.63-.58,14-5.3,18.24a105.9,105.9,0,0,1-19.48,1.81,82.8,82.8,0,0,1-18.28-1.91c-1.18-2-6.84-12-4.32-18.59a9.61,9.61,0,0,1,4.51-1.13,9.92,9.92,0,0,1,1.72.16c.62,2.22,2.76,9.07,6.1,10.18l.08,0,.09,0a59,59,0,0,0,7.28.5,23.18,23.18,0,0,0,5.43-.52l.41-.11.21-.36c.33-.57,8-14.16-2.17-41.18l-.15-.4-.4-.17c-.52-.22-13.11-5.4-32.77-5.4a115.53,115.53,0,0,0-46.26,9.82,4.43,4.43,0,0,0-2.7,1.67c-4.83,5.43-11.44,27.28-1.41,112.56l0,.15.06.13c.48,1.08,6.85,10.76,82.25,20.57-4.12,8-26,52.06-27.42,84.46-8.91.29-78.66,2.69-107.89,9l-.44.09-.22.39c-.26.46-6.57,11.59-10.61,32.79-6.75,35.35-1.66,70.29,3.79,93.38l.13.55.53.17c.39.13,39.22,12.6,76.74,12.6,3,0,5.93-.08,8.75-.23h.11l.11,0c.73-.21,7.11-2.16,7.88-5.61,2.31-10.4,3.24-21.74,2.92-35.69V582l-.36-.29c-.48-.39-1-.84-1.54-1.32-2.79-2.45-6.6-5.81-13.24-7.18a8.07,8.07,0,0,0-1.64-.16A9.06,9.06,0,0,0,84.07,575a6.8,6.8,0,0,0-2.58,6,18.68,18.68,0,0,1-2.77.22,17.39,17.39,0,0,1-8.4-2.16,30.84,30.84,0,0,1-.38-14.15,139.11,139.11,0,0,1,17-4.39,51.72,51.72,0,0,1,9.29-.91,36,36,0,0,1,7.78.81c5.3,1.16,10.18,3.59,15.85,6.87,2.15,8,1.93,16.46,1.71,24.67-.21,8-.43,16.26,1.5,24.22l.12.49.47.19C163.78,633.72,207.32,643.31,245,651c7.37,1.5,13.62,7.3,17.62,16.33a53,53,0,0,1,4,26.68c-.64,5.26-1.14,10.72-1.63,16-1,10.45-2,21.26-4.09,31.41a41.28,41.28,0,0,1-23.11,7.14,37.3,37.3,0,0,1-17.46-4.24c-1.43-3.6-1.59-7.75-1.51-11.55A25.51,25.51,0,0,0,228.6,735a16.26,16.26,0,0,0,3.47-.36,23,23,0,0,0,12.42-7.38l.17,0,.1-.33.08-.25,1.42-4.64-.8.94c2.3-15.68-1.82-32.2-11.54-45.88l-.28-.4-.5,0c-26-.85-52.08-5.49-77.3-10l-1.3-.23-16.92-3-18.43-3.28a10.06,10.06,0,0,0-1.8-.17,10.31,10.31,0,0,0-8.5,4.67c-2,2.9-2.9,6.76-2.66,11.45.11,2.2.44,4.4.75,6.52.24,1.56.48,3.18.63,4.76a43,43,0,0,1-10,31.45A48.12,48.12,0,0,1,85,720.5c-9.27,0-18.62-2.41-26.22-4.41a37.3,37.3,0,0,1-2.44-15.67c.63.09,1.27.19,1.9.3l2.2.34a12.14,12.14,0,0,0,7,9.3l.12,0,.12,0a46.89,46.89,0,0,0,6.88.54,31.92,31.92,0,0,0,7.5-.85l.2,0,.16-.12A31.22,31.22,0,0,0,90.32,702a35.19,35.19,0,0,0,4.92-14.4A41.94,41.94,0,0,0,88,658.74l-.24-.35-.43-.06c-32-4.75-65.16-9.66-94.28-25.08-4.34-9.44-8.92-16.2-14.83-21.89l-.41-.39-.55.15a147.71,147.71,0,0,1-39.48,5.23A169.25,169.25,0,0,1-91,613.84c-5.13-17.25-3.12-37.28,5.4-53.8a18.64,18.64,0,0,1,3.36-.28,23.35,23.35,0,0,1,4.53.44,57.29,57.29,0,0,0-4.86,16.93c-.41,3.18-.62,7.26,1.39,10.66,2.42,4.08,7.48,6.35,11.31,7.54A43.46,43.46,0,0,0-57,596.92a96.78,96.78,0,0,0,12-.75l.28,0,.22-.18A21.06,21.06,0,0,0-39,589.56l.12-.24v-.27c-2.47-38.1,4.23-77.95,19.37-115.24,2.45-6,5.49-12.82,10.75-17.43,5-4.37,11.9-5.27,20.73-5.27,1.45,0,2.89,0,4.33,0s2.84,0,4.23,0c1.78,0,3.23,0,4.57-.1a326.85,326.85,0,0,0,51-6.81c.53,1.09,1.56,3.81,1.89,4.76a20.88,20.88,0,0,1,1.21,5.9,6.71,6.71,0,0,1-.06.8,4.71,4.71,0,0,0,.09,2.18,2.58,2.58,0,0,0,2.51,1.4h.14l.89,0a11.39,11.39,0,0,0,5.56-1.43c4.42-2.45,6.41-8.2,6.07-17.58-.21-5.73-2.73-17-10.75-18.75-8.79-1.89-18.16-3.93-27.52-6.27C38,410.79,19.74,405.43,2,399.41L.52,398.9c-.41-12.92,2.7-25,6-37.75C7.69,356.54,8.92,351.77,10,347c3.44-15.88,6.4-36.39-1.4-54.28l-.12-.28-.26-.16a44,44,0,0,0-23.48-6.87A41.37,41.37,0,0,0-26.85,287l-.35.1-.2.3a22.83,22.83,0,0,0-2.52,18.42l.11.37.34.2a32.93,32.93,0,0,0,8.21,3.4,16.57,16.57,0,0,1-8,10.41,37.59,37.59,0,0,1-17.28-10.09c-.76-8.79.81-18,2.34-27,.15-.87.3-1.74.44-2.61l.33-.35c2.94-3.24,5.26-5.79,8.86-8.14a6.82,6.82,0,0,1,3.44-1.41,3.57,3.57,0,0,1,.47,0l.13,0h.12c4.45-.37,9.2-.55,14.1-.55,14.26,0,28.85,1.54,41.48,3,9.86,23.85,14.05,48.18,12.45,72.34l0,.74.69.26a13.89,13.89,0,0,0,4.87.89,12.42,12.42,0,0,0,1.83-.13l.65-.09.17-.64a128.61,128.61,0,0,0-3.17-75.67,151.87,151.87,0,0,1,11.73-34.22,26.12,26.12,0,0,1,4.29-6.77,9.38,9.38,0,0,1,6.55-3.16h.21c15.93-2.36,34.66-4.86,52.84-5.59,3.06-.12,6.09-.18,9-.18m0-1q-4.53,0-9,.18c-17.6.71-35.51,3-52.94,5.6h-.07a10.43,10.43,0,0,0-7.28,3.47,27.17,27.17,0,0,0-4.46,7A152.25,152.25,0,0,0,41.6,271a127,127,0,0,1,3.24,75.34,11.76,11.76,0,0,1-1.68.12,13,13,0,0,1-4.51-.82c1.66-25.19-3-50-12.75-73.34-13.89-1.62-28.1-3.09-42.18-3.09-4.74,0-9.48.16-14.18.55a3.39,3.39,0,0,0-.64-.06,7.73,7.73,0,0,0-4,1.57c-3.92,2.57-6.41,5.41-9.57,8.87-1.66,9.9-3.75,20.5-2.81,30.49a38.45,38.45,0,0,0,18.36,10.71,17.63,17.63,0,0,0,9.05-12.2A32.51,32.51,0,0,1-29,305.56,21.77,21.77,0,0,1-26.57,288a40.63,40.63,0,0,1,11.27-1.58,42.71,42.71,0,0,1,22.94,6.71C14.91,309.8,12.84,329,9,346.79S-1.21,381.44-.46,399.62l2.14.73q26.76,9.09,54.21,15.95c9.15,2.28,18.34,4.29,27.55,6.27,7,1.5,9.72,11.42,10,17.82.21,6-.34,13.78-5.55,16.67a10.49,10.49,0,0,1-5.08,1.3q-.4,0-.81,0c-.68-.05-1.52-.06-1.8-.78s.07-1.91,0-2.65a22.14,22.14,0,0,0-1.26-6.18c-.18-.52-2-5.56-2.41-5.56h0A325.8,325.8,0,0,1,25,450.09c-1.46.08-3,.1-4.51.1-2.8,0-5.68-.08-8.56-.08-8,0-15.83.65-21.39,5.52-5.3,4.64-8.36,11.27-11,17.8-14.82,36.5-22,76.37-19.45,115.68a20.44,20.44,0,0,1-5.25,6.06,94.59,94.59,0,0,1-11.9.75h0a42.34,42.34,0,0,1-12.54-1.54c-4-1.26-8.58-3.47-10.74-7.1-1.75-2.95-1.7-6.62-1.26-10a55.38,55.38,0,0,1,5.33-17.76,24.57,24.57,0,0,0-6-.74,19.31,19.31,0,0,0-4,.39c-8.79,16.75-11.09,37.48-5.52,55.57a169.76,169.76,0,0,0,29.5,2.63,148.65,148.65,0,0,0,39.75-5.27c6.61,6.37,11,13.54,14.76,21.89,29.18,15.54,62.19,20.5,94.9,25.35a40.85,40.85,0,0,1,7.1,28.17,33.78,33.78,0,0,1-4.77,14,29.67,29.67,0,0,1-7.69,7.67,31.17,31.17,0,0,1-7.27.82,46,46,0,0,1-6.73-.53,11.05,11.05,0,0,1-6.44-9.25c-1.92-.27-4-.65-6-.92A38.47,38.47,0,0,0,58,716.93c8.67,2.28,17.68,4.57,27,4.57a49.47,49.47,0,0,0,13.18-1.72,43.78,43.78,0,0,0,10.46-32.43c-.35-3.76-1.19-7.47-1.37-11.24s.34-7.73,2.49-10.83a9.29,9.29,0,0,1,7.67-4.24,9,9,0,0,1,1.62.15l35.36,6.29c26.12,4.65,52.22,9.36,78.74,10.23,10,14,14.3,31.94,10.71,48.78l.06-.08c0,.2-.11.39-.17.58,0-.16.07-.33.11-.5a22.12,22.12,0,0,1-12,7.16,15.48,15.48,0,0,1-3.26.33,26.3,26.3,0,0,1-10.79-2.74c-.15,4.62-.12,9.52,1.68,13.78a38.08,38.08,0,0,0,18.25,4.53,42.22,42.22,0,0,0,24-7.54c3.29-15.49,3.9-32.17,5.82-47.89,2.09-17.17-5.42-40.66-22.38-44.11C204,641.61,162.83,632.24,124,616c-3.91-16.15,1.15-33.3-3.33-49.31-5.2-3-10.6-5.9-16.48-7.19a37.09,37.09,0,0,0-8-.83,52,52,0,0,0-9.47.93,142.16,142.16,0,0,0-17.68,4.6,32,32,0,0,0,.41,15.59,18.39,18.39,0,0,0,9.24,2.49,19.27,19.27,0,0,0,4-.42,5.68,5.68,0,0,1,2-6,8,8,0,0,1,4.94-1.73,7.64,7.64,0,0,1,1.44.14c7.63,1.58,11.31,5.83,14.35,8.3.27,12-.31,23.78-2.9,35.45-.66,3-7.18,4.87-7.18,4.87-2.88.16-5.78.23-8.69.23-37.8,0-76.43-12.55-76.43-12.55-19-80.64,6.72-125.45,6.72-125.45,31.36-6.72,108.64-9,108.64-9,1.12-35.84,28-86.24,28-86.24C75.18,379.78,70.7,369.7,70.7,369.7c-13.18-112,2.73-113.13,3.34-113.13h0a114.81,114.81,0,0,1,46-9.8c19.69,0,32.39,5.32,32.39,5.32,10.08,26.88,2.24,40.33,2.24,40.33a22.72,22.72,0,0,1-5.19.49,58.16,58.16,0,0,1-7.13-.49c-3.36-1.12-5.6-10.08-5.6-10.08a10.21,10.21,0,0,0-2.54-.32,10.35,10.35,0,0,0-5.31,1.44c-3.36,7.84,4.48,20.16,4.48,20.16a83.83,83.83,0,0,0,18.92,2,103.05,103.05,0,0,0,19.94-1.89c5.26-4.46,5.75-12.26,5.84-19.15q.19-16.08.41-32.15a72.1,72.1,0,0,0-.8-14.54c-.92-4.77-2.48-11.07-7.15-12.42-14-4-28.68-5.55-43.31-5.55Z" transform="translate(105.14 -78.15)"/>
  </g>
  <g id="azulGrandeDer">
    <path class="cls-1" d="M358.41,749.05a41.84,41.84,0,0,1-23.56-7.34c-2.17-10.24-3.17-21.13-4.14-31.67-.49-5.27-1-10.73-1.63-16-2-16,4.59-40,22-43.56,37.65-7.67,81.17-17.26,121.25-34.09l.24-.1.06-.24c1.91-7.9,1.69-16.13,1.48-24.09-.21-8.31-.44-16.9,1.79-25,5.78-3.36,10.75-5.84,16.17-7a36.94,36.94,0,0,1,7.89-.82,51.72,51.72,0,0,1,9.37.92,142.26,142.26,0,0,1,17.34,4.49,31.34,31.34,0,0,1-.4,14.87,17.77,17.77,0,0,1-8.82,2.33,19,19,0,0,1-3.34-.31,6.22,6.22,0,0,0-2.32-6,8.55,8.55,0,0,0-5.25-1.84,7.88,7.88,0,0,0-1.54.15c-6.5,1.35-10.26,4.65-13,7.06-.54.48-1.06.94-1.55,1.34l-.18.15v.23c-.31,13.9.61,25.21,2.91,35.57.72,3.22,7.25,5.16,7.53,5.24l.06,0h0c2.81.16,5.75.23,8.72.23,37.45,0,76.2-12.45,76.59-12.58l.27-.08.06-.28c18.87-79.91-6.51-125.36-6.77-125.81l-.11-.19-.22-.05c-29.78-6.38-101.75-8.75-108.27-8.95-1.24-33.34-24.61-79.4-27.71-85.36,77.11-10,82.38-19.94,82.57-20.36l0-.07v-.07c10-85.08,3.49-106.8-1.29-112.17a3.79,3.79,0,0,0-2.46-1.51,115.06,115.06,0,0,0-46.12-9.81c-19.57,0-32.46,5.31-32.58,5.36l-.2.09-.08.2c-10,26.79-2.53,40.19-2.2,40.75l.1.18.21,0a22.58,22.58,0,0,0,5.3.51,57.74,57.74,0,0,0,7.21-.5c3.34-1.1,5.5-8.54,5.94-10.16a10.12,10.12,0,0,1,2.12-.23,10,10,0,0,1,4.91,1.28c2.86,7-3.49,17.88-4.4,19.38a83.06,83.06,0,0,1-18.6,2,105.37,105.37,0,0,1-19.71-1.85c-5-4.31-5.47-11.9-5.56-18.7l-.42-32.15A72,72,0,0,1,418.9,238c1-5.28,2.63-10.84,6.81-12,13-3.72,27.07-5.53,43.17-5.53,2.92,0,6,.06,9,.18,18.2.73,37,3.24,52.89,5.59h.15a9.9,9.9,0,0,1,6.91,3.32,26.47,26.47,0,0,1,4.38,6.89A152.8,152.8,0,0,1,554,270.92a128,128,0,0,0-3.21,75.5l.08.32.33.05a12.69,12.69,0,0,0,1.76.12,13.31,13.31,0,0,0,4.68-.86l.35-.13,0-.37c-1.61-24.33,2.62-48.83,12.59-72.83,12.71-1.49,27.44-3.06,41.83-3.06,4.92,0,9.68.18,14.14.55h.13a3.41,3.41,0,0,1,.55-.05,7.25,7.25,0,0,1,3.72,1.49c3.65,2.39,6,5,9,8.22l.42.46.47,2.76c1.54,9,3.13,18.38,2.32,27.28a38,38,0,0,1-17.82,10.4,17.07,17.07,0,0,1-8.51-11.3,32.57,32.57,0,0,0,8.56-3.47l.17-.1.06-.19a22.29,22.29,0,0,0-2.46-18l-.1-.15-.18-.05a41,41,0,0,0-11.4-1.6,43.51,43.51,0,0,0-23.22,6.79l-.13.08-.06.14c-7.74,17.75-4.79,38.17-1.36,54,1,4.77,2.26,9.53,3.44,14.13,3.33,12.92,6.47,25.12,6,38.24l-1.81.62c-17.75,6-36,11.39-54.17,15.93-9.38,2.35-18.75,4.39-27.54,6.27-7.71,1.67-10.14,12.69-10.34,18.29-.34,9.17,1.56,14.77,5.8,17.13a11,11,0,0,0,5.33,1.36q.42,0,.84,0h.15c.68-.05,1.7-.12,2.08-1.08a4.18,4.18,0,0,0,.06-1.94,6,6,0,0,1-.06-.88,20.87,20.87,0,0,1,1.23-6,48.11,48.11,0,0,1,2.11-5.18,325.35,325.35,0,0,0,51.28,6.89c1.34.07,2.78.1,4.55.1,1.39,0,2.8,0,4.22,0s2.88,0,4.33,0c9,0,16,.92,21.06,5.39,5.34,4.68,8.42,11.55,10.88,17.62C631.28,511,638,550.91,635.53,589.08v.14l.06.12a20.54,20.54,0,0,0,5.38,6.22l.11.09.14,0a95.66,95.66,0,0,0,12,.75,43.06,43.06,0,0,0,12.69-1.57c3.74-1.16,8.68-3.37,11-7.32,1.94-3.26,1.73-7.24,1.33-10.34a56.38,56.38,0,0,0-5.1-17.35,24,24,0,0,1,5.26-.58,19.25,19.25,0,0,1,3.69.33c8.73,16.77,10.77,37.17,5.46,54.69a169.61,169.61,0,0,1-29.1,2.57,148.3,148.3,0,0,1-39.62-5.25l-.28-.07-.2.19c-5.9,5.68-10.46,12.43-14.8,21.89-29.23,15.53-62.45,20.45-94.59,25.21l-.21,0-.12.17a41.39,41.39,0,0,0-7.2,28.51,34.47,34.47,0,0,0,4.85,14.2,30.54,30.54,0,0,0,7.82,7.81l.08.06.1,0a31,31,0,0,0,7.38.84,47.18,47.18,0,0,0,6.81-.53h.06l.06,0a11.58,11.58,0,0,0,6.73-9.28l2.55-.39,2.46-.39a37.57,37.57,0,0,1-2.52,16.67c-7.67,2-17.16,4.49-26.6,4.49a48,48,0,0,1-12.89-1.67A43.49,43.49,0,0,1,488,687.39c.15-1.59.39-3.22.63-4.78.31-2.11.64-4.29.75-6.47.23-4.59-.64-8.34-2.58-11.15a9.83,9.83,0,0,0-8.09-4.45,10,10,0,0,0-1.71.16l-36.64,6.52c-25.24,4.49-51.34,9.14-77.38,10h-.25l-.14.2c-10.41,14.65-14.34,32.57-10.79,49.18l0,.12.08.1a22.48,22.48,0,0,0,12.23,7.31,15.25,15.25,0,0,0,3.36.35A25.57,25.57,0,0,0,377.85,732c.12,4.11,0,8.7-1.59,12.67A37.78,37.78,0,0,1,358.41,749.05Z" transform="translate(105.14 -78.15)"/>
    <path class="cls-2" d="M468.87,221c2.92,0,5.95.06,9,.18,18.18.73,36.91,3.23,52.84,5.59h.22a9.42,9.42,0,0,1,6.55,3.16,26.39,26.39,0,0,1,4.29,6.77,151.87,151.87,0,0,1,11.73,34.22,128.53,128.53,0,0,0-3.18,75.67l.17.64.66.09a12.22,12.22,0,0,0,1.83.13,13.88,13.88,0,0,0,4.86-.89l.69-.26,0-.74c-1.6-24.16,2.58-48.49,12.44-72.34,12.63-1.48,27.23-3,41.48-3,4.91,0,9.65.18,14.1.55h.13l.12,0a3.57,3.57,0,0,1,.47,0,6.79,6.79,0,0,1,3.44,1.41c3.6,2.35,5.93,4.9,8.87,8.14l.32.35c.14.87.29,1.74.44,2.61,1.53,8.95,3.11,18.19,2.34,27a37.59,37.59,0,0,1-17.28,10.09,16.57,16.57,0,0,1-8-10.41,33,33,0,0,0,8.22-3.4l.33-.2.12-.37a22.83,22.83,0,0,0-2.52-18.42l-.21-.3L623,287a41.3,41.3,0,0,0-11.54-1.62A44,44,0,0,0,588,292.28l-.25.16-.12.28c-7.8,17.89-4.85,38.4-1.4,54.28,1,4.77,2.26,9.54,3.45,14.15,3.29,12.76,6.4,24.83,6,37.75l-1.49.51c-17.73,6-35.95,11.38-54.13,15.92-9.36,2.34-18.73,4.38-27.52,6.27-8,1.72-10.53,13-10.74,18.75-.34,9.38,1.64,15.13,6.06,17.58a11.42,11.42,0,0,0,5.56,1.43c.3,0,.6,0,.89,0h.15a2.6,2.6,0,0,0,2.51-1.4,4.71,4.71,0,0,0,.09-2.18,5.1,5.1,0,0,1-.06-.8,20.5,20.5,0,0,1,1.2-5.9c.37-1.06,1.37-3.69,1.9-4.76a326.85,326.85,0,0,0,51,6.81c1.34.07,2.79.1,4.56.1,1.4,0,2.81,0,4.24,0s2.88,0,4.32,0c8.84,0,15.74.9,20.73,5.27,5.26,4.61,8.31,11.41,10.75,17.43C630.79,511.1,637.49,551,635,589.05l0,.27.12.24a21.35,21.35,0,0,0,5.51,6.39l.23.18.28,0a96.62,96.62,0,0,0,12,.75A43.53,43.53,0,0,0,666,595.33c3.82-1.19,8.88-3.46,11.3-7.54,2-3.4,1.8-7.48,1.39-10.66a57,57,0,0,0-4.86-16.93,23.51,23.51,0,0,1,4.53-.44,18.64,18.64,0,0,1,3.36.28c8.53,16.52,10.54,36.55,5.4,53.8a169.07,169.07,0,0,1-28.72,2.51,147.76,147.76,0,0,1-39.48-5.23l-.55-.15-.41.39c-5.91,5.69-10.49,12.45-14.83,21.89-29.12,15.42-62.24,20.33-94.28,25.08l-.42.06-.25.35a41.94,41.94,0,0,0-7.28,28.87,34.9,34.9,0,0,0,4.92,14.4,31.2,31.2,0,0,0,7.94,7.94l.16.12.2,0a32,32,0,0,0,7.5.85,46.89,46.89,0,0,0,6.88-.54l.13,0,.11,0a12.15,12.15,0,0,0,7-9.3l2.19-.34,1.9-.3a37.14,37.14,0,0,1-2.44,15.67c-7.59,2-16.95,4.41-26.22,4.41a48.12,48.12,0,0,1-12.62-1.61,43,43,0,0,1-10-31.45c.15-1.58.4-3.2.63-4.76.32-2.12.65-4.32.76-6.52.23-4.69-.67-8.55-2.67-11.45a10.3,10.3,0,0,0-8.5-4.67,9.86,9.86,0,0,0-1.79.17l-16.93,3L441.6,666.5l-1.29.23c-25.22,4.49-51.3,9.13-77.31,10l-.49,0-.29.4c-9.72,13.68-13.83,30.2-11.53,45.88l-.8-.94,1.41,4.64.11.34.07.24.17,0a23,23,0,0,0,12.42,7.38,16.33,16.33,0,0,0,3.47.36,25.51,25.51,0,0,0,9.83-2.22c.08,3.8-.08,8-1.51,11.55a37.26,37.26,0,0,1-17.45,4.24,41.29,41.29,0,0,1-23.12-7.14c-2.12-10.15-3.12-21-4.09-31.41-.48-5.28-1-10.74-1.63-16a52.94,52.94,0,0,1,4-26.68c4-9,10.25-14.83,17.61-16.33,37.67-7.68,81.22-17.27,121.35-34.12l.46-.19.12-.49c1.93-8,1.71-16.23,1.5-24.22-.21-8.21-.44-16.68,1.72-24.67,5.66-3.28,10.55-5.71,15.84-6.87a36.14,36.14,0,0,1,7.79-.81,51.62,51.62,0,0,1,9.28.91,138.65,138.65,0,0,1,17,4.39,30.84,30.84,0,0,1-.38,14.15,17.39,17.39,0,0,1-8.39,2.16,18.71,18.71,0,0,1-2.78-.22,6.81,6.81,0,0,0-2.57-6,9.11,9.11,0,0,0-5.57-1.95,8.07,8.07,0,0,0-1.64.16c-6.63,1.37-10.45,4.73-13.24,7.18-.54.48-1.05.93-1.54,1.32l-.36.29v.47c-.31,14,.62,25.29,2.92,35.69.77,3.45,7.16,5.4,7.88,5.61l.11,0h.12c2.81.15,5.75.23,8.74.23,37.53,0,76.36-12.47,76.74-12.6l.54-.17.13-.55c9.87-41.83,7.51-73.87,3.79-93.38-4.05-21.2-10.35-32.33-10.62-32.79l-.22-.39-.44-.09c-29.22-6.27-99-8.67-107.89-9-1.4-32.4-23.29-76.43-27.41-84.46,75.4-9.81,81.77-19.49,82.25-20.57l.06-.13v-.15c10-85.28,3.43-107.13-1.41-112.56a4.43,4.43,0,0,0-2.7-1.67,115.48,115.48,0,0,0-46.25-9.82c-19.67,0-32.25,5.18-32.78,5.4l-.4.17-.15.4c-10.13,27-2.5,40.61-2.17,41.18l.22.36.41.11a23.09,23.09,0,0,0,5.42.52,59,59,0,0,0,7.28-.5l.09,0,.08,0c3.35-1.11,5.49-8,6.1-10.18a10,10,0,0,1,1.72-.16,9.58,9.58,0,0,1,4.51,1.13c2.52,6.57-3.14,16.61-4.32,18.59a82.8,82.8,0,0,1-18.28,1.91,105.9,105.9,0,0,1-19.48-1.81c-4.72-4.19-5.21-11.61-5.29-18.24l-.21-16.08-.21-16.07a71.7,71.7,0,0,1,.78-14.34c1-5.13,2.53-10.52,6.45-11.65,12.91-3.71,27-5.51,43-5.51m0-1c-14.62,0-29.27,1.52-43.3,5.55-4.68,1.35-6.24,7.65-7.16,12.42a72.1,72.1,0,0,0-.8,14.54l.42,32.15c.09,6.89.58,14.69,5.84,19.15a103,103,0,0,0,19.93,1.89,83.77,83.77,0,0,0,18.92-2s7.84-12.32,4.48-20.16a10.31,10.31,0,0,0-5.31-1.44,10.19,10.19,0,0,0-2.53.32s-2.24,9-5.6,10.08a58.43,58.43,0,0,1-7.14.49,22.63,22.63,0,0,1-5.18-.49s-7.84-13.45,2.24-40.33c0,0,12.69-5.32,32.39-5.32a114.8,114.8,0,0,1,46,9.8h0c.62,0,16.52,1.08,3.34,113.13,0,0-4.48,10.08-82.88,20.16,0,0,26.88,50.4,28,86.24,0,0,77.28,2.24,108.64,9,0,0,25.77,44.81,6.72,125.45,0,0-38.63,12.55-76.43,12.55-2.91,0-5.81-.07-8.69-.23,0,0-6.52-1.9-7.18-4.87-2.59-11.67-3.17-23.5-2.9-35.45,3-2.47,6.72-6.72,14.35-8.3a7.72,7.72,0,0,1,1.44-.14,8,8,0,0,1,4.94,1.73,5.65,5.65,0,0,1,2,6,19.37,19.37,0,0,0,4,.42,18.38,18.38,0,0,0,9.23-2.49,31.88,31.88,0,0,0,.41-15.59,142.16,142.16,0,0,0-17.68-4.6,51.85,51.85,0,0,0-9.46-.93,37.09,37.09,0,0,0-8,.83c-5.88,1.29-11.29,4.16-16.49,7.19-4.48,16,.59,33.16-3.33,49.31C433.31,632.24,392.18,641.61,351,650,334,653.46,326.48,677,328.58,694.12c1.92,15.72,2.52,32.4,5.82,47.89a42.2,42.2,0,0,0,24,7.54A38.07,38.07,0,0,0,376.65,745c1.8-4.26,1.83-9.16,1.68-13.78A26.22,26.22,0,0,1,367.54,734a15.32,15.32,0,0,1-3.25-.33,22.08,22.08,0,0,1-12-7.16c0,.17.07.34.11.5l-.18-.58.07.08c-3.6-16.84.72-34.73,10.7-48.78,26.52-.87,52.62-5.58,78.75-10.23l35.35-6.29a9,9,0,0,1,1.62-.15,9.32,9.32,0,0,1,7.68,4.24c2.14,3.1,2.68,7.06,2.49,10.83s-1,7.48-1.38,11.24A43.79,43.79,0,0,0,498,719.78a49.45,49.45,0,0,0,13.17,1.72c9.29,0,18.3-2.29,27-4.57a38.21,38.21,0,0,0,2.6-17.66c-1.91.27-4,.65-5.94.92a11.06,11.06,0,0,1-6.45,9.25,45.83,45.83,0,0,1-6.73.53,31,31,0,0,1-7.26-.82,29.56,29.56,0,0,1-7.7-7.67,34.07,34.07,0,0,1-4.77-14A40.86,40.86,0,0,1,509,659.32c32.7-4.85,65.72-9.81,94.9-25.35,3.81-8.35,8.14-15.52,14.75-21.89a148.7,148.7,0,0,0,39.75,5.27,169.67,169.67,0,0,0,29.5-2.63c5.57-18.09,3.28-38.82-5.52-55.57a19.24,19.24,0,0,0-4-.39,24.57,24.57,0,0,0-6,.74,55.13,55.13,0,0,1,5.33,17.76c.44,3.4.49,7.07-1.26,10-2.15,3.63-6.7,5.84-10.74,7.1a42.34,42.34,0,0,1-12.54,1.54,94.82,94.82,0,0,1-11.9-.75,20.27,20.27,0,0,1-5.24-6.06c2.54-39.31-4.64-79.18-19.45-115.68-2.65-6.53-5.72-13.16-11-17.8-5.56-4.87-13.42-5.52-21.39-5.52-2.87,0-5.76.08-8.56.08-1.54,0-3,0-4.51-.1a325.8,325.8,0,0,1-51.48-6.92h0c-.39,0-2.22,5-2.4,5.56A21.45,21.45,0,0,0,516,454.9c0,.74.31,2,0,2.65s-1.13.73-1.81.78q-.4,0-.81,0a10.45,10.45,0,0,1-5.07-1.3c-5.22-2.89-5.77-10.71-5.55-16.67.23-6.4,3-16.32,10-17.82,9.21-2,18.41-4,27.55-6.27q27.42-6.84,54.21-15.95l2.14-.73c.75-18.18-5.58-35.05-9.44-52.83s-5.93-37,1.34-53.67a42.75,42.75,0,0,1,23-6.71A40.61,40.61,0,0,1,622.71,288a21.77,21.77,0,0,1,2.4,17.57,32.51,32.51,0,0,1-8.91,3.53,17.68,17.68,0,0,0,9,12.2,38.44,38.44,0,0,0,18.37-10.71c.94-10-1.16-20.59-2.81-30.49-3.16-3.46-5.66-6.3-9.58-8.87a7.73,7.73,0,0,0-4-1.57,3.55,3.55,0,0,0-.64.06c-4.7-.39-9.43-.55-14.18-.55-14.08,0-28.29,1.47-42.18,3.09-9.71,23.3-14.41,48.15-12.74,73.34a13.09,13.09,0,0,1-4.51.82,11.9,11.9,0,0,1-1.69-.12A126.87,126.87,0,0,1,554.55,271a152.74,152.74,0,0,0-11.87-34.73,27.21,27.21,0,0,0-4.47-7,10.41,10.41,0,0,0-7.27-3.47h-.07c-17.43-2.58-35.35-4.89-52.95-5.6q-4.51-.18-9.05-.18Z" transform="translate(105.14 -78.15)"/>
  </g>
  <g id="amarilloGrande">
    <path class="cls-1" d="M296.69,670.85l-23.13-1.57a207.26,207.26,0,0,1-18.75-31.41l-.11-.22-.24,0c-7-1.5-14-3.37-20.81-5.17s-13.85-3.68-20.88-5.19c-23-4.92-46.69-10-68.78-19.15-4.31-20.44-6.21-38.59-5.82-55.47v-.36l-.33-.12a155.52,155.52,0,0,0-54.43-9.86A150.49,150.49,0,0,0,54.94,545l-.31.06-.08.31a103.19,103.19,0,0,0-.23,47.44l.07.33.34,0c4.64.66,9.43,1.46,14.06,2.23s9.42,1.57,14.06,2.23l.21,0,.17-.13a16.84,16.84,0,0,0,6.52-13.74c1.94.55,4.82,1.56,6.37,3.05.94.9.26,3.61-.19,5.4-.14.55-.26,1-.34,1.46a149.08,149.08,0,0,1-4.11,16.54c-4.26-.25-8.68-.66-13-1.06s-9-.84-13.36-1.09c-10.46-.57-21.27-1.17-31.79-2.86-4.36-.7-7.65-1.42-10.21-4.22A192.38,192.38,0,0,1,17,550.57c.12-10.87,1.14-19.67,3.22-27.69a63,63,0,0,1,12.07-24.61c31-2.69,62.07-4,92.31-4,27,0,53.87,1.1,79.76,3.25,11.72,1,23,2.34,32.1,8.32,12.05,7.93,18.17,22.15,24.08,35.9,2.93,6.81,5.95,13.86,9.67,20l.11.18.2.05a131.31,131.31,0,0,0,27,3.09h.73a131.33,131.33,0,0,0,27-3.09l.2-.05.11-.18c3.71-6.19,6.74-13.24,9.67-20,5.91-13.75,12-28,24.08-35.9,9.1-6,20.38-7.35,32.1-8.32,25.89-2.15,52.72-3.25,79.76-3.25,30.23,0,61.29,1.36,92.31,4a63.12,63.12,0,0,1,12.07,24.61c2.08,8,3.1,16.82,3.22,27.69A192.38,192.38,0,0,1,572.65,601c-2.57,2.8-5.86,3.52-10.21,4.22-10.53,1.69-21.34,2.29-31.79,2.86-4.4.25-9,.67-13.37,1.09s-8.68.81-12.94,1.06a146.89,146.89,0,0,1-4.11-16.54c-.08-.41-.2-.92-.34-1.46-.45-1.79-1.13-4.5-.19-5.4,1.54-1.49,4.42-2.5,6.37-3.05a16.84,16.84,0,0,0,6.52,13.74l.17.13.21,0c4.64-.66,9.43-1.46,14-2.23s9.43-1.57,14.07-2.23l.33,0,.08-.33a103.19,103.19,0,0,0-.23-47.44l-.08-.31-.32-.06a150.31,150.31,0,0,0-28.46-2.7A155.52,155.52,0,0,0,458,552.14l-.34.12v.36c.39,16.88-1.51,35-5.82,55.47C429.74,617.22,406,622.32,383,627.24c-7,1.51-14.06,3.38-20.87,5.19s-13.82,3.67-20.81,5.17l-.24,0-.11.22a208.42,208.42,0,0,1-18.75,31.41l-23.15,1.57ZM178.06,586.1l.18.09A322.18,322.18,0,0,0,296,618.07h3.53a322.06,322.06,0,0,0,117.78-31.88l.19-.09,19.31-55.25a284,284,0,0,1,63.85-7.2A298.68,298.68,0,0,1,539,526.14a16.18,16.18,0,0,1,10.89,6.67c7.07,9.25,8.64,25.61,7.1,36.9l1,.17a57.56,57.56,0,0,0-13.67-49l-.12-.13-.18,0a386.4,386.4,0,0,0-54-3.84,356.53,356.53,0,0,0-104,15.28l-.23.07-.09.22c-2.23,5.46-4.19,11.25-6.27,17.37C372.14,571.06,364.69,593,346,601.35a119.65,119.65,0,0,1-47.54,10.29H297.1a119.69,119.69,0,0,1-47.55-10.29c-18.68-8.34-26.13-30.29-33.34-51.52-2.08-6.12-4.05-11.91-6.27-17.37l-.09-.22-.23-.07a356.6,356.6,0,0,0-104-15.28,386.37,386.37,0,0,0-54,3.84l-.18,0-.12.13a57.5,57.5,0,0,0-13.67,49l1-.17c-1.53-11.29,0-27.65,7.11-36.9a16.14,16.14,0,0,1,10.88-6.67,298.68,298.68,0,0,1,38.31-2.49,283.9,283.9,0,0,1,63.85,7.2Z" transform="translate(105.14 -78.15)"/>
    <path class="cls-2" d="M471.19,494.72c30.15,0,61.11,1.36,92,4A62.66,62.66,0,0,1,575.08,523c2.07,8,3.08,16.73,3.2,27.56a192.28,192.28,0,0,1-6.08,50.2c-2.45,2.6-5.63,3.29-9.84,4-10.49,1.69-21.29,2.29-31.74,2.86-4.4.25-9,.68-13.38,1.09-4.14.39-8.41.79-12.54,1a148,148,0,0,1-4-16.11c-.08-.43-.21-.94-.35-1.48-.37-1.48-1.06-4.22-.32-4.92a14.18,14.18,0,0,1,5.5-2.73,17.41,17.41,0,0,0,6.74,13.45l.33.26.42-.06c4.65-.66,9.45-1.46,14.08-2.23s9.41-1.57,14-2.22l.67-.1.16-.66a103.64,103.64,0,0,0-.24-47.67l-.15-.63-.63-.12a151.44,151.44,0,0,0-28.56-2.71,155.86,155.86,0,0,0-54.61,9.89l-.66.25v.71c.39,16.77-1.49,34.8-5.75,55.1-22,9-45.6,14.12-68.46,19-7,1.51-14.08,3.38-20.89,5.19s-13.81,3.67-20.8,5.17l-.47.1-.22.44A208,208,0,0,1,322,668.8l-22.9,1.55h-2.36l-22.91-1.55a207.91,207.91,0,0,1-18.56-31.15l-.22-.44-.48-.1c-7-1.5-14-3.36-20.79-5.17s-13.86-3.68-20.89-5.19c-22.86-4.9-46.49-10-68.46-19-4.26-20.3-6.14-38.33-5.75-55.1v-.71l-.66-.25a156.08,156.08,0,0,0-54.61-9.89,150.62,150.62,0,0,0-28.56,2.71l-.63.12-.15.63a103.5,103.5,0,0,0-.24,47.67l.16.66.67.1c4.63.65,9.41,1.45,14,2.22s9.43,1.57,14.08,2.23l.42.06.33-.26a17.37,17.37,0,0,0,6.73-13.45,14.16,14.16,0,0,1,5.51,2.73c.73.7,0,3.44-.32,4.92-.14.54-.27,1-.35,1.48a145.73,145.73,0,0,1-4,16.11c-4.13-.24-8.39-.64-12.53-1-4.41-.41-9-.84-13.39-1.09-10.44-.57-21.25-1.17-31.73-2.86-4.21-.67-7.39-1.36-9.84-4a192.28,192.28,0,0,1-6.08-50.2c.12-10.83,1.13-19.59,3.2-27.56a62.79,62.79,0,0,1,11.84-24.26c30.94-2.67,61.9-4,92.05-4,27,0,53.85,1.09,79.73,3.25,11.65,1,22.86,2.33,31.86,8.24,11.93,7.84,18,22,23.9,35.68,2.93,6.83,6,13.88,9.7,20.1l.22.37.41.09a130.83,130.83,0,0,0,27.1,3.11h.74a130.88,130.88,0,0,0,27.08-3.11l.41-.09L326,562c3.73-6.22,6.76-13.27,9.7-20.1,5.88-13.68,12-27.84,23.9-35.68,9-5.91,20.2-7.27,31.86-8.24,25.87-2.16,52.7-3.25,79.73-3.25h0M297.1,611.14a119,119,0,0,1-47.34-10.25c-18.49-8.24-25.9-30.09-33.08-51.22-2.08-6.13-4.05-11.92-6.28-17.4l-.18-.44-.45-.14a357.28,357.28,0,0,0-104.19-15.3,386,386,0,0,0-54.07,3.85l-.36,0-.24.27A58,58,0,0,0,37.12,570l2-.34c-1.52-11.19,0-27.39,7-36.52a15.63,15.63,0,0,1,10.55-6.48,297.6,297.6,0,0,1,38.24-2.49,284,284,0,0,1,63.47,7.12l7.44,21.29,11.72,33.52.13.38.37.18A322.56,322.56,0,0,0,296,618.57h3.64a322.46,322.46,0,0,0,117.93-31.93l.37-.18.14-.38.24-.7,18.92-54.11a284,284,0,0,1,63.47-7.12,297.72,297.72,0,0,1,38.24,2.49,15.68,15.68,0,0,1,10.55,6.48c7,9.13,8.53,25.33,7,36.52l2,.34a58,58,0,0,0-13.79-49.42l-.24-.27-.36,0A386,386,0,0,0,490,516.39a357.26,357.26,0,0,0-104.18,15.3l-.46.14-.17.44c-2.24,5.48-4.2,11.27-6.29,17.4-7.17,21.13-14.59,43-33.07,51.22a119,119,0,0,1-47.34,10.25H297.1M471.18,493.72c-26.69,0-53.37,1-79.8,3.25-11.22.93-22.92,2.22-32.33,8.41-18.19,12-22.71,37.43-33.91,56.1a129.54,129.54,0,0,1-26.87,3.08h-.72a129.46,129.46,0,0,1-26.87-3.08c-11.2-18.67-15.72-44.15-33.91-56.1-9.41-6.19-21.11-7.48-32.33-8.41-26.43-2.2-53.11-3.25-79.81-3.25-30.94,0-61.91,1.41-92.55,4.07a63.91,63.91,0,0,0-12.31,25,115.46,115.46,0,0,0-3.23,27.8,192.19,192.19,0,0,0,6.18,50.7c2.77,3.1,6.48,3.8,10.58,4.46,10.53,1.7,21.19,2.29,31.84,2.87,8.78.49,17.92,1.68,26.7,2.17a146.14,146.14,0,0,0,4.24-17c.37-1.94,1.84-5.92.38-7.31-1.73-1.67-5-2.76-7.26-3.35a16.2,16.2,0,0,1-6.28,14c-9.28-1.32-18.84-3.14-28.12-4.45A102.6,102.6,0,0,1,55,545.47a148.89,148.89,0,0,1,28.37-2.69,155.74,155.74,0,0,1,54.26,9.83c-.44,18.72,2,37.52,5.88,55.84,22.13,9.18,45.7,14.25,69.12,19.28,14,3,27.67,7.35,41.68,10.36a210,210,0,0,0,18.94,31.67l23.4,1.59h2.44l23.4-1.59a209.9,209.9,0,0,0,18.93-31.67c14-3,27.67-7.35,41.69-10.36,23.42-5,47-10.1,69.12-19.28,3.87-18.32,6.31-37.12,5.88-55.84a155.47,155.47,0,0,1,54.26-9.83,149.71,149.71,0,0,1,28.37,2.69,102.6,102.6,0,0,1,.24,47.21c-9.28,1.31-18.85,3.13-28.12,4.45a16.2,16.2,0,0,1-6.28-14c-2.28.59-5.53,1.68-7.27,3.35-1.45,1.39,0,5.37.39,7.31a146.14,146.14,0,0,0,4.24,17c8.78-.49,17.92-1.68,26.7-2.17,10.64-.58,21.31-1.17,31.84-2.87,4.1-.66,7.81-1.36,10.58-4.46a192.19,192.19,0,0,0,6.18-50.7,115.47,115.47,0,0,0-3.24-27.8,63.89,63.89,0,0,0-12.3-25c-30.64-2.66-61.61-4.07-92.56-4.07ZM297.1,612.14h1.36a119.46,119.46,0,0,0,47.75-10.34c24.25-10.82,29.85-44.56,39.87-69.15A355.8,355.8,0,0,1,490,517.39a384.78,384.78,0,0,1,53.94,3.84,57.11,57.11,0,0,1,13.55,48.55c2.22-16.33-2.08-42-18.42-44.13a296.9,296.9,0,0,0-38.37-2.5,284.75,284.75,0,0,0-64.24,7.27c-6.5,18.62-12.83,36.71-19.34,55.32a319.43,319.43,0,0,1-117.56,31.83H296a319.54,319.54,0,0,1-117.57-31.83c-6.5-18.61-12.83-36.7-19.34-55.32a284.73,284.73,0,0,0-64.23-7.27,296.78,296.78,0,0,0-38.37,2.5c-16.34,2.12-20.64,27.8-18.42,44.13-3.43-17,1.9-35.67,13.55-48.55a384.64,384.64,0,0,1,53.93-3.84,355.75,355.75,0,0,1,103.89,15.26c10,24.59,15.62,58.33,39.88,69.15a119.46,119.46,0,0,0,47.75,10.34Z" transform="translate(105.14 -78.15)"/>
  </g>
  <g id="amarilloMedAba">
    <path class="cls-1" d="M297.91,556.1a71.65,71.65,0,0,1-20.7-3.31c-5.42-9.28-10.8-19-16-28.36s-10.65-19.2-16.1-28.54l-.1-.17-.19-.06c-34.77-10.52-68.6-16.56-100.55-18a73.36,73.36,0,0,1,9.33-31,103.59,103.59,0,0,0,19,1.64,127,127,0,0,0,13.75-.75l.36,0,.07-.35a119.84,119.84,0,0,0,3.2-27.68v-.3l-.27-.14a74.64,74.64,0,0,0-15.87-5.73l-.3-.07-.2.23c-3,3.62-3.75,8.72-3.85,12.35a6.74,6.74,0,0,0,.28,2.47,3.36,3.36,0,0,0,1.42,1.81c-.06.55-.09,1.09-.12,1.62s-.06.87-.1,1.3c-.86.06-1.72.08-2.57.08a35.88,35.88,0,0,1-10.71-1.57,45.62,45.62,0,0,1,12.05-34.33A95.39,95.39,0,0,1,208.9,414a85.47,85.47,0,0,1-6.54,46.52,136.75,136.75,0,0,1-17.81,1.2,114.4,114.4,0,0,1-16.65-1.18l-.46-.06-.1.44a13.41,13.41,0,0,0-.23,1.67,11.31,11.31,0,0,1-.21,1.53l-.13.57.58,0c5,.41,10.31,1.06,15.42,1.69s10.43,1.28,15.47,1.68c18.19,1.47,37,3,54.83,8.18,6,8.12,12.23,16.4,18.28,24.4s12.37,16.36,18.37,24.52c1.89,2.56,4,5.11,7,5.66a4.5,4.5,0,0,0,1,.08,11.42,11.42,0,0,0,1.36-.08c3.1-.32,5.14-3.09,6.93-5.53l.09-.13c6-8.16,12.29-16.47,18.37-24.51s12.3-16.28,18.29-24.41c17.82-5.2,36.63-6.71,54.83-8.18,5-.4,10.34-1.05,15.46-1.68s10.4-1.28,15.43-1.69l.57,0-.12-.57a11.53,11.53,0,0,1-.21-1.53,14.74,14.74,0,0,0-.23-1.66l-.1-.45-.46.06a114.4,114.4,0,0,1-16.65,1.18,136.75,136.75,0,0,1-17.81-1.2A85.47,85.47,0,0,1,386.91,414a95.43,95.43,0,0,1,39.22-16.76,45.61,45.61,0,0,1,12,34.33,35.79,35.79,0,0,1-10.71,1.57c-.84,0-1.71,0-2.57-.08,0-.43-.06-.87-.09-1.3s-.06-1.07-.12-1.62a3.36,3.36,0,0,0,1.42-1.81,6.94,6.94,0,0,0,.28-2.47c-.1-3.63-.86-8.73-3.85-12.35l-.2-.23-.3.07a74.64,74.64,0,0,0-15.87,5.73l-.28.14v.3a119.78,119.78,0,0,0,3.19,27.68l.08.35.36,0a126.84,126.84,0,0,0,13.75.75,103.59,103.59,0,0,0,19-1.64,73.31,73.31,0,0,1,9.32,31c-31.94,1.39-65.77,7.43-100.54,18l-.19.06-.1.17c-5.45,9.34-10.86,19.1-16.1,28.54s-10.6,19.08-16,28.36A71.65,71.65,0,0,1,297.91,556.1Z" transform="translate(105.14 -78.15)"/>
    <path class="cls-2" d="M426,397.76a45.13,45.13,0,0,1,11.75,33.41,35.45,35.45,0,0,1-10.24,1.45c-.69,0-1.4,0-2.1-.05l-.06-.86c0-.44-.05-.88-.09-1.33a4.06,4.06,0,0,0,1.36-1.9,7.18,7.18,0,0,0,.31-2.65c-.11-3.72-.88-8.93-4-12.65l-.39-.48-.6.14a75.67,75.67,0,0,0-16,5.77l-.55.27v.62a119.6,119.6,0,0,0,3.21,27.78l.15.7.71.08a125.58,125.58,0,0,0,13.81.76A103.89,103.89,0,0,0,442,447.23a72.89,72.89,0,0,1,9,30c-31.84,1.44-65.53,7.48-100.15,17.95l-.38.12-.2.34c-5.45,9.34-10.87,19.11-16.11,28.55s-10.53,19-15.9,28.19a66,66,0,0,1-40.74,0c-5.37-9.23-10.72-18.87-15.9-28.19S251,505,245.53,495.64l-.2-.34-.38-.12c-34.62-10.47-68.31-16.51-100.15-17.95a73,73,0,0,1,9-30,103.93,103.93,0,0,0,18.72,1.59,125.27,125.27,0,0,0,13.8-.76l.72-.08.15-.7a119.6,119.6,0,0,0,3.21-27.78v-.62l-.56-.27a75.4,75.4,0,0,0-16-5.77l-.6-.14-.4.48c-3.08,3.72-3.85,8.93-4,12.65a7.18,7.18,0,0,0,.31,2.65,4.06,4.06,0,0,0,1.36,1.9c0,.45-.07.89-.09,1.33l-.06.86c-.7,0-1.41.05-2.1.05a35.56,35.56,0,0,1-10.25-1.45,45.18,45.18,0,0,1,11.76-33.41,94.9,94.9,0,0,1,38.57,16.5A85,85,0,0,1,202,460a136.76,136.76,0,0,1-17.47,1.16A114.85,114.85,0,0,1,168,460l-.91-.14-.21.9a14.68,14.68,0,0,0-.24,1.73,12,12,0,0,1-.19,1.47l-.26,1.13,1.15.09c5,.4,10.3,1.05,15.4,1.68s10.44,1.28,15.49,1.69c18.11,1.46,36.84,3,54.57,8.11,6,8.08,12.17,16.31,18.18,24.27s12.37,16.36,18.37,24.52c1.94,2.63,4.09,5.25,7.26,5.84a5,5,0,0,0,1.13.1c.42,0,.89,0,1.41-.08,3.32-.35,5.52-3.34,7.29-5.74l.09-.12c6-8.16,12.29-16.48,18.37-24.52s12.23-16.19,18.18-24.27c17.73-5.14,36.46-6.65,54.57-8.11,5.05-.41,10.36-1.06,15.48-1.69s10.39-1.28,15.41-1.68l1.15-.09L429.4,464a11.89,11.89,0,0,1-.2-1.47,11.42,11.42,0,0,0-.24-1.73l-.2-.9-.92.14a114.71,114.71,0,0,1-16.57,1.17A136.64,136.64,0,0,1,393.8,460a85,85,0,0,1-6.42-45.78A94.84,94.84,0,0,1,426,397.76m.36-1.07a95.8,95.8,0,0,0-39.86,17A85.77,85.77,0,0,0,393.11,461a137.94,137.94,0,0,0,18.16,1.24A115.55,115.55,0,0,0,428,461c.23,1,.21,2.18.44,3.19-10.07.81-20.82,2.56-30.89,3.37-18.55,1.5-37.24,3-55.1,8.25-12,16.33-24.73,32.72-36.75,49.06C304,527.26,302,530,299,530.35c-.55,0-1,.07-1.31.07a4,4,0,0,1-.91-.07c-2.9-.53-4.93-3.09-6.67-5.46-12-16.34-24.74-32.73-36.76-49.06-17.85-5.23-36.55-6.75-55.09-8.25-10.07-.81-20.82-2.56-30.89-3.37.23-1,.21-2.18.44-3.19a115.45,115.45,0,0,0,16.72,1.18A137.78,137.78,0,0,0,202.7,461a85.68,85.68,0,0,0,6.67-47.26,95.79,95.79,0,0,0-39.87-17,45.79,45.79,0,0,0-12.32,35.23,35.89,35.89,0,0,0,11.18,1.7c.95,0,1.91,0,2.87-.1l.12.18c.18-1.29.16-2.58.33-3.86a2.78,2.78,0,0,1-1.49-1.69,6.31,6.31,0,0,1-.25-2.29c.12-4.21,1.05-8.81,3.73-12.05a74.31,74.31,0,0,1,15.77,5.7,120.78,120.78,0,0,1-3.18,27.56,127.94,127.94,0,0,1-13.7.75,103,103,0,0,1-19.23-1.7,73.86,73.86,0,0,0-9.6,32.06c34.25,1.45,68.12,8,100.93,18,10.9,18.67,21.32,38.4,32.21,57.07a67,67,0,0,0,42.07,0c10.9-18.67,21.32-38.4,32.21-57.07,32.82-9.93,66.69-16.51,100.94-18a73.86,73.86,0,0,0-9.6-32.06,103,103,0,0,1-19.23,1.7,127.94,127.94,0,0,1-13.7-.75,120.78,120.78,0,0,1-3.18-27.56,74.43,74.43,0,0,1,15.76-5.7c2.68,3.24,3.62,7.84,3.74,12.05a6.1,6.1,0,0,1-.26,2.29,2.73,2.73,0,0,1-1.48,1.69c.17,1.28.15,2.57.33,3.86l.12-.18c1,.07,1.91.1,2.87.1a35.89,35.89,0,0,0,11.18-1.7,45.8,45.8,0,0,0-12.33-35.23Z" transform="translate(105.14 -78.15)"/>
  </g>
  <path id="amarilloCentroCont" class="cls-3" d="M261.45,466.4a144.85,144.85,0,0,0-37.39-6.83c7.19-34.53,15.57-69.16,25.48-103,2.35-8,5-16.43,11.22-22,9.34-8.48,24.59-9,37.15-9s27.8.51,37.15,9c6.19,5.61,8.87,14,11.22,22,9.91,33.82,18.29,68.45,25.48,103a144.85,144.85,0,0,0-37.39,6.83C322.5,483,309.78,500.46,297.91,517,286,500.46,273.32,483,261.45,466.4Zm36.18-122.53c-11.72.74-26.07,2.71-33.5,11.81-4.36,5.34-6.06,12.32-7.63,19-5,21.27-10,43.18-15,64.45a42.4,42.4,0,0,0,11.2,14.55l44.92-.4,44.93.4a42.5,42.5,0,0,0,11.19-14.55c-5-21.27-10-43.18-15-64.45-1.57-6.71-3.26-13.69-7.63-19C323.7,346.58,309.36,344.61,297.63,343.87Z" transform="translate(105.14 -78.15)"/>
  <g id="amarilloAntenas">
    <path class="cls-1" d="M297.91,315.74c-7.17-.77-17.58-2.1-25.83-4.71A1204,1204,0,0,1,270,136.67c.38-6.15.76-12.44-1.28-18.23-1.89-5.38-7-11.17-13.66-11.19a10.52,10.52,0,0,0-8.71,5.2,7.93,7.93,0,0,0-.68,7.57,6.29,6.29,0,0,1-4.58,2.1,4.42,4.42,0,0,1-1.57-.27,8.67,8.67,0,0,1-4.71-5,20.31,20.31,0,0,1-1.15-7.17c0-2.07,1.48-7.94,6.36-12.89s11.34-7.37,19.41-7.37c1.25,0,2.54.06,3.86.18a31.56,31.56,0,0,1,18.52,8.2c5.29,4.93,8.13,11.75,7.6,18.26-4,49.54-3.35,100.8-2.28,153.34.18,8.81.41,19.76,5.53,28.62l.09.17.18.06a21.81,21.81,0,0,0,5,.95,21.77,21.77,0,0,0,5-.95l.18-.06.09-.17c5.12-8.86,5.35-19.82,5.53-28.62,1.07-52.54,1.7-103.81-2.29-153.34-.52-6.51,2.32-13.33,7.61-18.26,5.48-5.1,12.22-8.09,18.48-8.2h.89c9.77,0,17.7,2.8,22.93,8.11,4.87,4.94,5.87,10.32,5.85,12a20.1,20.1,0,0,1-1.16,7.17,8.66,8.66,0,0,1-4.7,5,4.46,4.46,0,0,1-1.57.27,6.29,6.29,0,0,1-4.58-2.1,8,8,0,0,0-.68-7.57,10.52,10.52,0,0,0-8.69-5.2c-6.71,0-11.79,5.81-13.68,11.19-2,5.8-1.66,12.08-1.29,18.16A1203.41,1203.41,0,0,1,323.74,311C315.49,313.64,305.08,315,297.91,315.74Z" transform="translate(105.14 -78.15)"/>
    <path class="cls-2" d="M259.42,89.9c1.23,0,2.51.06,3.81.18a31,31,0,0,1,18.23,8.07c5.17,4.82,8,11.49,7.45,17.85-4,49.56-3.36,100.84-2.29,153.39.18,8.86.41,19.89,5.59,28.86l.19.33.36.12a14,14,0,0,0,10.3,0l.36-.12.18-.33c5.19-9,5.41-20,5.6-28.86,1.07-52.55,1.7-103.83-2.29-153.39-.51-6.36,2.27-13,7.45-17.85,5.39-5,12-8,18.15-8.07h.88c9.64,0,17.44,2.75,22.57,8,4.22,4.28,5.74,9.4,5.71,11.61a19.92,19.92,0,0,1-1.12,7,8.19,8.19,0,0,1-4.42,4.73,3.9,3.9,0,0,1-1.39.24,5.83,5.83,0,0,1-4-1.7,8.49,8.49,0,0,0-.84-7.73,11,11,0,0,0-9.14-5.44c-6.93,0-12.18,6-14.13,11.52-2.08,5.89-1.69,12.23-1.32,18.36v.07a1204.2,1204.2,0,0,1-2.06,174c-8.14,2.52-18.31,3.81-25.36,4.58-7.05-.77-17.22-2.06-25.36-4.58a1204.2,1204.2,0,0,1-2.06-174v-.07c.37-6.13.76-12.47-1.32-18.36-1.95-5.53-7.2-11.5-14.16-11.52a11,11,0,0,0-9.11,5.44,8.49,8.49,0,0,0-.84,7.73,5.83,5.83,0,0,1-4,1.7,3.86,3.86,0,0,1-1.39-.24,8.19,8.19,0,0,1-4.42-4.73,19.7,19.7,0,0,1-1.12-7c0-1.92,1.5-7.74,6.21-12.53s11.13-7.22,19.06-7.22m0-1c-20.87,0-26.33,16.67-26.27,20.77a20.57,20.57,0,0,0,1.19,7.35,9.19,9.19,0,0,0,5,5.29,4.89,4.89,0,0,0,1.75.31,6.8,6.8,0,0,0,5.17-2.53c-2.82-5.37,2.71-12.34,8.77-12.34h0c6.07,0,11.17,5.13,13.19,10.85s1.62,12,1.25,18a1202.33,1202.33,0,0,0,2.12,174.77c8,2.58,18,3.94,26.3,4.83,8.28-.89,18.28-2.25,26.3-4.83a1200.92,1200.92,0,0,0,2.11-174.77c-.36-6.06-.75-12.31,1.26-18s7.12-10.83,13.19-10.85h0c6.06,0,11.59,7,8.77,12.34a6.79,6.79,0,0,0,5.17,2.53,4.89,4.89,0,0,0,1.75-.31,9.19,9.19,0,0,0,5-5.29,20.35,20.35,0,0,0,1.18-7.35c.07-4.29-5.18-20.59-29.27-20.59h-.89c-7,.12-13.72,3.59-18.82,8.34s-8.32,11.71-7.76,18.66c4.06,50.56,3.31,102.58,2.28,153.29-.2,9.74-.59,19.95-5.46,28.38a21,21,0,0,1-4.83.93h0a21,21,0,0,1-4.82-.93c-4.87-8.43-5.26-18.64-5.46-28.38-1-50.71-1.79-102.73,2.28-153.29.56-7-2.66-13.91-7.76-18.66a32.21,32.21,0,0,0-18.82-8.34c-1.35-.12-2.66-.18-3.9-.18Z" transform="translate(105.14 -78.15)"/>
  </g>
  <path id="amarilloOjoIzq" class="cls-3" d="M173.42,532.67a142.49,142.49,0,0,1,27.7,8.46,154.58,154.58,0,0,0,24.54,55.11,130,130,0,0,1-32.25-12.46C184.06,567.74,177.81,550.71,173.42,532.67Z" transform="translate(105.14 -78.15)"/>
  <g id="amarilloMedIzq">
    <path class="cls-1" d="M215.88,379c-19.16,0-84.59-1-123.17-14.28-12.4-27.32-15.32-59.86-8-89.38.68.08,1.09.16,1.51.24s.87.17,1.59.26c-.28,22.72,4.23,47.67,13,72.17l.09.24.24.07c24.91,7.53,47.92,11.19,70.33,11.19a198,198,0,0,0,44.06-5l.33-.08,0-.34c4.39-29.61,21.06-61.82,42.59-82.38l2.78,37.49a117.56,117.56,0,0,0-36,69.63C224.22,378.88,221.1,379,215.88,379Z" transform="translate(105.14 -78.15)"/>
    <path class="cls-2" d="M258.09,272.81,260.78,309a118.13,118.13,0,0,0-35.95,69.35c-1.32,0-4.33.11-9,.11-8.69,0-31.63-.24-56.9-2.41-27.88-2.4-50-6.36-65.9-11.77-12.22-27-15.13-59.2-8-88.43.42.06.72.12,1,.18s.69.14,1.17.21c-.21,22.66,4.31,47.5,13.08,71.9l.17.47.48.15C126,356.3,149,360,171.48,360a197.7,197.7,0,0,0,44.17-5l.67-.15.1-.68c4.31-29.15,20.59-60.83,41.67-81.35m.84-2.19c-22,20.58-39,53.16-43.5,83.4a195.78,195.78,0,0,1-44,5c-23.47,0-46.74-4.08-70.19-11.17-8.26-23-13.37-48-13-72.45-2-.2-2-.4-4-.59a139.25,139.25,0,0,0,8,90.32c36.86,12.73,99.43,14.38,123.53,14.38,5.84,0,9.42-.1,9.83-.16a117.9,117.9,0,0,1,36.1-69.9l-2.88-38.78Z" transform="translate(105.14 -78.15)"/>
  </g>
  <g id="AzulMedIzq">
    <path class="cls-1" d="M161.83,345.26a170.41,170.41,0,0,1-52.93-8.35,136.82,136.82,0,0,1-10.52-71.55,66.63,66.63,0,0,1,24.65-4.7,67.86,67.86,0,0,1,22.27,3.73,52.1,52.1,0,0,1,2.56,17.2l-1.89-.11-2-.11a21.33,21.33,0,0,0-3.65-7.63l-.14-.17H140c-1.3-.12-2.61-.18-3.91-.18a41.87,41.87,0,0,0-18,4l-.25.12,0,.28A71.47,71.47,0,0,0,123.37,313l.1.22.23.06a104.92,104.92,0,0,0,26.83,3.46,103.44,103.44,0,0,0,42.54-9.06l.14-.07,36.29-64c7.24-12.76,14.51-28,13.73-43.92,5.88-2.47,10.2-3.63,13.85-3.73l.38,49c-9.71,5.28-16.62,14.11-22.1,22.06A201.56,201.56,0,0,0,204.15,340,172.17,172.17,0,0,1,161.83,345.26Z" transform="translate(105.14 -78.15)"/>
    <path class="cls-2" d="M256.58,196.52l.37,48.19c-5.21,2.87-12.35,8.08-22,22.06a202.23,202.23,0,0,0-31.23,72.81,171.63,171.63,0,0,1-94.45-3.08,136.34,136.34,0,0,1-10.43-70.79A66.06,66.06,0,0,1,123,261.16a67.23,67.23,0,0,1,21.86,3.62,51.86,51.86,0,0,1,2.49,16.28L146,281l-1.65-.1a21.58,21.58,0,0,0-3.65-7.46l-.27-.33-.43,0c-1.31-.12-2.64-.18-3.95-.18a42.47,42.47,0,0,0-18.17,4l-.51.25-.06.56a72.09,72.09,0,0,0,5.6,35.53l.2.44.46.13a106,106,0,0,0,27,3.47,103.83,103.83,0,0,0,42.74-9.11l.3-.13.16-.28,36.21-63.85c7.22-12.74,14.47-27.87,13.8-43.84,5.39-2.24,9.43-3.36,12.84-3.54m1-1c-4.08,0-8.73,1.31-14.87,3.92.88,15.56-6,30.43-13.64,44l-36.21,63.85a102.44,102.44,0,0,1-42.33,9,104.47,104.47,0,0,1-26.7-3.44,71.15,71.15,0,0,1-5.52-35,41.29,41.29,0,0,1,17.74-3.92c1.29,0,2.58.06,3.87.17a21,21,0,0,1,3.65,7.79c1.62.12,3.14.17,4.76.29.41-6-.89-12.39-2.63-18.13A68.59,68.59,0,0,0,123,260.16,66.4,66.4,0,0,0,97.92,265a137.09,137.09,0,0,0,10.62,72.31,172.59,172.59,0,0,0,96,3.07,200.23,200.23,0,0,1,31.2-73.05c6-8.66,12.9-17.08,22.19-22l-.38-49.81Z" transform="translate(105.14 -78.15)"/>
  </g>
  <g id="azulPeqIzq">
    <path class="cls-1" d="M217,247.39c0-4-.1-8.58-.19-13.37-.21-10.93-.45-23.32.13-32.91.23-3.94.7-8.41,3.37-11.58a13.3,13.3,0,0,1,7.49-4.15,17.17,17.17,0,0,1,3.77-.36c.8,0,1.61,0,2.42.08a8.35,8.35,0,0,0-3.41,4.13,21,21,0,0,0-1,7.74l-.17,28.67c0,7.63-5.6,14-11,20.14C218,246.32,217.5,246.85,217,247.39Z" transform="translate(105.14 -78.15)"/>
    <path class="cls-2" d="M231.61,185.52l1,0a9.27,9.27,0,0,0-2.44,3.5,21.48,21.48,0,0,0-1.06,7.93L229,211.3l-.09,14.33c0,7.45-5.54,13.74-10.85,19.82l-.53.61c0-3.7-.11-7.78-.19-12.05-.21-10.92-.45-23.3.12-32.87.24-3.86.7-8.24,3.26-11.29a12.87,12.87,0,0,1,7.22-4,17.4,17.4,0,0,1,3.66-.34m0-1a18,18,0,0,0-3.87.37,13.78,13.78,0,0,0-7.78,4.32c-2.7,3.21-3.23,7.68-3.48,11.87-.85,14.21.07,34.21.07,47.65,5.79-6.82,13.32-14.14,13.37-23.09q.09-14.34.17-28.66a20.51,20.51,0,0,1,1-7.57c.95-2.38,3-4.47,5.61-4.64-1.71-.1-3.4-.25-5.08-.25Z" transform="translate(105.14 -78.15)"/>
  </g>
  <g id="amarilloPeqIzq">
    <path class="cls-1" d="M192.79,279.48c-2.71-12-4-24.53-4-39.45v-.56c0-7.32,0-14.89-1.35-22.22-.08-.42-.15-.89-.23-1.38-.44-2.68-1-6.34-2.82-8.14s-5.34-2.82-7.68-3.48l-1-.28c-3.71-1-7.55-2.09-9.74-5a9.79,9.79,0,0,1-1.67-6.59c.05-1,.06-1.91.07-2.85,0-1.17,0-2.37.11-3.55a19.5,19.5,0,0,0-4.2-13.39c-2.84-3.5-8.13-7-13.57-7a10.58,10.58,0,0,0-1.27.07c-5.58.6-6.25,4.85-6.9,9a6.85,6.85,0,0,1-2.2,4.28,4.78,4.78,0,0,1-3,1.18,4,4,0,0,1-2.81-1.18,4.77,4.77,0,0,1-1.32-3.4v-.56c0-4.81,0-9.79,2-14.07,1.08-2.32,3.63-3.8,8-4.67a74.38,74.38,0,0,1,14.19-1.47c7.63,0,13.7,1.5,18.05,4.47a22.28,22.28,0,0,1,8.73,12.18c.38,1.37.63,2.8.88,4.19a42.12,42.12,0,0,0,1,4.48c2,6.95,8.17,8.47,14.13,9.94,1.26.31,2.55.63,3.79,1a13.21,13.21,0,0,1,5,2.28c2.13,1.85,1.94,6.25,1.79,9.79-.05,1.17-.09,2.28-.05,3.19L209,255.65A225.4,225.4,0,0,0,192.79,279.48Z" transform="translate(105.14 -78.15)"/>
    <path class="cls-2" d="M153.44,154.17v1h0c7.53,0,13.5,1.47,17.76,4.38a21.8,21.8,0,0,1,8.54,11.91c.37,1.34.62,2.76.87,4.13a40.84,40.84,0,0,0,1,4.54c2.09,7.22,8.39,8.78,14.49,10.28,1.25.31,2.54.63,3.77,1a12.9,12.9,0,0,1,4.81,2.18c1.95,1.69,1.77,6,1.62,9.39-.05,1.18-.09,2.3-.05,3.23l.37,8.2.38,8.19.74,16.26.76,16.64A226.83,226.83,0,0,0,193,278.14,176,176,0,0,1,189.33,240v-.57c0-7.34,0-14.93-1.36-22.31-.07-.41-.15-.87-.23-1.36-.47-2.89-1.06-6.5-3-8.41s-5.52-2.93-7.91-3.61l-.09,0-.93-.26c-3.63-1-7.38-2.05-9.47-4.85a9.28,9.28,0,0,1-1.57-6.27c.05-1,.06-1.93.07-2.87,0-1.15,0-2.35.11-3.52a20.06,20.06,0,0,0-4.32-13.74c-2.9-3.59-8.34-7.21-14-7.21a11.85,11.85,0,0,0-1.33.07c-6,.65-6.68,5.29-7.33,9.39a6.38,6.38,0,0,1-2,4,4.29,4.29,0,0,1-2.7,1.06,3.49,3.49,0,0,1-2.46-1,4.3,4.3,0,0,1-1.17-3.05v-.56c0-4.76,0-9.68,2-13.86,1-2.16,3.44-3.56,7.67-4.38a74.29,74.29,0,0,1,14.1-1.47v-1m0,0a76.19,76.19,0,0,0-14.29,1.48c-3.31.65-7,1.89-8.39,4.95-2.11,4.56-2,9.82-2,14.84a4.79,4.79,0,0,0,4.63,5.08,5.28,5.28,0,0,0,3.34-1.29,7.39,7.39,0,0,0,2.38-4.59c.68-4.34,1.38-8,6.45-8.54a10,10,0,0,1,1.22-.07c5,0,10.16,3.12,13.18,6.84a19,19,0,0,1,4.09,13c-.14,2.13-.08,4.25-.18,6.41a10.31,10.31,0,0,0,1.77,6.91c2.49,3.33,6.93,4.34,10.93,5.47,2.29.64,5.82,1.62,7.56,3.37,2,2,2.42,6.61,2.91,9.26,1.38,7.47,1.34,15.12,1.34,22.69a175.14,175.14,0,0,0,4.26,40.8,222,222,0,0,1,16.9-25q-.77-16.63-1.52-33.26l-.75-16.39c-.17-3.68,1.13-10.69-1.91-13.34a13.63,13.63,0,0,0-5.18-2.38c-7.08-2.09-15.24-2.49-17.59-10.59-.82-2.83-1-5.82-1.84-8.66a22.57,22.57,0,0,0-8.93-12.46c-5-3.41-11.67-4.56-18.33-4.56Z" transform="translate(105.14 -78.15)"/>
  </g>
  <g id="azulPeqDer">
    <path class="cls-1" d="M376.82,245.78c-5.38-6.15-10.94-12.51-11-20.14L365.67,197a21,21,0,0,0-1-7.74,8.34,8.34,0,0,0-3.4-4.13c.8,0,1.62-.08,2.41-.08a17.17,17.17,0,0,1,3.77.36,13.35,13.35,0,0,1,7.5,4.15c2.66,3.17,3.13,7.64,3.37,11.58.57,9.59.33,22,.12,32.92-.09,4.78-.17,9.32-.19,13.36C377.76,246.85,377.29,246.32,376.82,245.78Z" transform="translate(105.14 -78.15)"/>
    <path class="cls-2" d="M363.65,185.52a17.57,17.57,0,0,1,3.67.34,12.88,12.88,0,0,1,7.21,4c2.57,3.05,3,7.43,3.26,11.29.57,9.57.33,22,.12,32.87-.08,4.27-.16,8.35-.18,12.05l-.54-.61c-5.31-6.08-10.81-12.37-10.85-19.82l-.07-12.28-.1-16.38a21.48,21.48,0,0,0-1.06-7.93,9.25,9.25,0,0,0-2.43-3.5l1,0m0-1c-1.68,0-3.37.15-5.07.25,2.55.17,4.65,2.26,5.6,4.64a20.51,20.51,0,0,1,1,7.57q.09,14.33.17,28.66c.05,9,7.58,16.27,13.38,23.09,0-13.44.91-33.44.07-47.65-.26-4.19-.79-8.66-3.49-11.87a13.78,13.78,0,0,0-7.78-4.32,18,18,0,0,0-3.87-.37Z" transform="translate(105.14 -78.15)"/>
  </g>
  <g id="amarilloPeqDer">
    <path class="cls-1" d="M402.47,279.48a224.91,224.91,0,0,0-16.19-23.83l2.26-49.47c0-.91,0-2-.05-3.19-.15-3.54-.33-7.94,1.79-9.79a13.21,13.21,0,0,1,5-2.28c1.24-.36,2.54-.68,3.79-1,6-1.47,12.12-3,14.13-9.94a42.3,42.3,0,0,0,1-4.49c.25-1.38.5-2.81.88-4.18a22.25,22.25,0,0,1,8.74-12.18c4.34-3,10.41-4.47,18.05-4.47A74.36,74.36,0,0,1,456,156.14c4.41.87,7,2.35,8,4.67,2,4.28,2,9.25,2,14.06v.57a4.77,4.77,0,0,1-1.32,3.4,3.94,3.94,0,0,1-2.81,1.18,4.78,4.78,0,0,1-3-1.18,6.85,6.85,0,0,1-2.2-4.28c-.65-4.11-1.32-8.36-6.9-9a10.58,10.58,0,0,0-1.27-.07c-5.44,0-10.73,3.53-13.56,7A19.56,19.56,0,0,0,430.76,186c.08,1.18.1,2.38.11,3.54,0,.95,0,1.9.07,2.86a9.78,9.78,0,0,1-1.67,6.59c-2.19,2.94-6,4-9.73,5l-.94.26c-2.42.68-6,1.68-7.77,3.5s-2.38,5.46-2.82,8.14c-.08.49-.15,1-.23,1.38-1.36,7.33-1.35,14.9-1.35,22.22V240A174.15,174.15,0,0,1,402.47,279.48Z" transform="translate(105.14 -78.15)"/>
    <path class="cls-2" d="M441.82,155.17a73.49,73.49,0,0,1,14.1,1.47c4.23.82,6.67,2.22,7.67,4.38,1.94,4.18,2,9.1,2,13.86v.56a4.26,4.26,0,0,1-1.17,3.05,3.49,3.49,0,0,1-2.46,1,4.29,4.29,0,0,1-2.7-1.06,6.38,6.38,0,0,1-2-4c-.64-4.1-1.38-8.74-7.33-9.39a11.73,11.73,0,0,0-1.33-.07c-5.61,0-11,3.62-13.95,7.21A20,20,0,0,0,430.27,186c.07,1.17.09,2.37.1,3.52,0,.94,0,1.91.07,2.87a9.28,9.28,0,0,1-1.57,6.27c-2.09,2.8-5.84,3.84-9.47,4.85l-.93.26-.09,0c-2.39.68-6,1.69-7.91,3.61s-2.48,5.52-3,8.41c-.08.49-.15,1-.23,1.36-1.37,7.38-1.36,15-1.36,22.31V240a176,176,0,0,1-3.67,38.11,226.83,226.83,0,0,0-15.47-22.65l1.5-32.9.38-8.19.37-8.2c0-.93,0-2-.05-3.23-.15-3.43-.33-7.7,1.62-9.39a12.9,12.9,0,0,1,4.81-2.18c1.23-.36,2.52-.68,3.77-1,6.1-1.5,12.4-3.06,14.49-10.28a40.84,40.84,0,0,0,1-4.54c.25-1.37.5-2.79.88-4.13a21.73,21.73,0,0,1,8.53-11.91c4.26-2.91,10.24-4.38,17.76-4.38m0-1c-6.65,0-13.34,1.15-18.33,4.56a22.62,22.62,0,0,0-8.93,12.46c-.79,2.84-1,5.83-1.84,8.66-2.34,8.1-10.51,8.5-17.58,10.59a13.49,13.49,0,0,0-5.18,2.38c-3,2.65-1.75,9.66-1.92,13.34l-.75,16.39q-.75,16.63-1.52,33.26a223.48,223.48,0,0,1,16.91,25,175.67,175.67,0,0,0,4.25-40.8c0-7.57,0-15.22,1.34-22.69.49-2.65.93-7.25,2.92-9.26,1.73-1.75,5.26-2.73,7.55-3.37,4-1.13,8.45-2.14,10.93-5.47a10.31,10.31,0,0,0,1.77-6.91c-.1-2.16,0-4.28-.18-6.41a19,19,0,0,1,4.09-13c3-3.72,8.22-6.84,13.18-6.84a9.87,9.87,0,0,1,1.22.07c5.07.54,5.77,4.2,6.45,8.54a7.36,7.36,0,0,0,2.39,4.59,5.24,5.24,0,0,0,3.33,1.29,4.79,4.79,0,0,0,4.63-5.08c0-5,.06-10.28-2.05-14.84-1.42-3.06-5.08-4.3-8.39-4.95a76.19,76.19,0,0,0-14.29-1.48Z" transform="translate(105.14 -78.15)"/>
  </g>
  <g id="amarilloMedDer">
    <path class="cls-1" d="M379.39,379c-5.22,0-8.35-.08-9.39-.13a117.63,117.63,0,0,0-36-69.63l2.78-37.49c21.53,20.56,38.2,52.77,42.59,82.38l.05.34.33.08a197.93,197.93,0,0,0,44,5h0c22.41,0,45.42-3.66,70.33-11.19l.25-.07.08-.24c8.81-24.5,13.32-49.45,13-72.17.72-.09,1.16-.17,1.59-.26s.83-.16,1.51-.24c7.29,29.52,4.37,62.06-8,89.38C464,377.92,398.55,379,379.39,379Z" transform="translate(105.14 -78.15)"/>
    <path class="cls-2" d="M337.17,272.81c21.08,20.52,37.36,52.2,41.68,81.35l.1.68.66.15a197.7,197.7,0,0,0,44.17,5c22.46,0,45.51-3.67,70.48-11.21l.48-.15.17-.47c8.77-24.4,13.29-49.24,13.08-71.9.49-.07.83-.14,1.17-.21s.63-.12,1-.18a138.71,138.71,0,0,1-8,88.43c-15.85,5.41-38,9.37-65.9,11.77-25.27,2.17-48.2,2.41-56.89,2.41-4.63,0-7.64-.06-9-.11A118.06,118.06,0,0,0,334.49,309l2.68-36.19m-.84-2.19-2.88,38.78a118,118,0,0,1,36.11,69.9c.4.06,4,.16,9.83.16,24.09,0,86.66-1.65,123.52-14.38a139.19,139.19,0,0,0,8-90.32c-2,.19-2,.39-4,.59.36,24.42-4.75,49.47-13,72.45C470.52,354.89,447.25,359,423.78,359a195.63,195.63,0,0,1-43.94-5c-4.48-30.24-21.56-62.82-43.51-83.4Z" transform="translate(105.14 -78.15)"/>
  </g>
  <g id="azulMedDer">
    <path class="cls-1" d="M433.43,345.26A172,172,0,0,1,391.12,340a201.75,201.75,0,0,0-31.22-72.93c-5.48-7.95-12.39-16.78-22.09-22.06l.37-49c3.65.1,8,1.26,13.86,3.73-.79,16,6.48,31.16,13.72,43.92l36.29,64,.15.07a103.37,103.37,0,0,0,42.54,9.06,104.9,104.9,0,0,0,26.82-3.46l.24-.06.09-.22a71.47,71.47,0,0,0,5.56-35.28l0-.28-.25-.12a41.87,41.87,0,0,0-18-4c-1.3,0-2.61.06-3.91.18h-.21l-.13.17a21,21,0,0,0-3.66,7.63l-2,.11-1.88.11a51.77,51.77,0,0,1,2.55-17.2,67.86,67.86,0,0,1,22.27-3.73,66.63,66.63,0,0,1,24.65,4.7,136.82,136.82,0,0,1-10.52,71.55,170.36,170.36,0,0,1-52.93,8.35Z" transform="translate(105.14 -78.15)"/>
    <path class="cls-2" d="M338.68,196.52c3.41.18,7.45,1.3,12.84,3.54-.67,16,6.59,31.1,13.81,43.84l21.09,37.19,15.11,26.66.16.28.3.13a103.89,103.89,0,0,0,42.74,9.11,106,106,0,0,0,27-3.47l.46-.13.2-.44A72,72,0,0,0,478,277.7l-.06-.56-.51-.25a42.47,42.47,0,0,0-18.17-4c-1.31,0-2.64.06-3.95.18l-.43,0-.27.33a21.58,21.58,0,0,0-3.65,7.46l-1.65.1-1.38.07a51.86,51.86,0,0,1,2.49-16.28,67.23,67.23,0,0,1,21.86-3.62,66.06,66.06,0,0,1,24.19,4.55A136.34,136.34,0,0,1,486,336.5a169.83,169.83,0,0,1-52.56,8.26,171.66,171.66,0,0,1-41.89-5.18,202.39,202.39,0,0,0-31.22-72.81c-9.65-14-16.8-19.19-22-22.06l.37-48.19m-1-1-.39,49.81c9.29,5,16.21,13.38,22.19,22a200.23,200.23,0,0,1,31.2,73.05,172.63,172.63,0,0,0,96-3.07A137.29,137.29,0,0,0,497.35,265a66.49,66.49,0,0,0-25.12-4.85A68.59,68.59,0,0,0,449.56,264c-1.74,5.74-3,12.14-2.62,18.13,1.61-.12,3.13-.17,4.75-.29a20.83,20.83,0,0,1,3.66-7.79c1.28-.11,2.57-.17,3.86-.17A41.26,41.26,0,0,1,477,277.8a71.26,71.26,0,0,1-5.51,35,104.55,104.55,0,0,1-26.71,3.44,102.47,102.47,0,0,1-42.33-9L366.2,243.4c-7.7-13.56-14.53-28.43-13.65-44-6.14-2.61-10.79-3.92-14.86-3.92Z" transform="translate(105.14 -78.15)"/>
  </g>
  <path id="centro" class="cls-3" d="M338.65,443.78q-3.45-19.06-6.89-38.11c-1.38-7.63-2.87-15.52-7.27-21.9-5.49-8-17.44-11.72-27.09-11.72s-21.59,3.76-27.08,11.72c-4.4,6.38-5.89,14.27-7.27,21.9q-3.45,19.05-6.89,38.11c13.41-1.12,27.84-1.4,41.24-1.4S325.24,442.66,338.65,443.78Z" transform="translate(105.14 -78.15)"/>
</svg>
